<svg width="30" height="27" viewBox="0 0 30 27" fill="none" xmlns="http://www.w3.org/2000/svg">
<path d="M16.3293 9.18881C16.3124 9.18219 16.2942 9.17931 16.2761 9.18037C16.2495 9.18037 16.2281 9.17648 16.2281 9.17259C16.2281 9.16869 16.2209 9.16675 16.2112 9.16934C16.2015 9.17194 16.1917 9.16934 16.1891 9.16415C16.1865 9.15896 16.1651 9.15182 16.1723 9.16415C16.1794 9.17648 16.1723 9.17259 16.1723 9.16805C16.1682 9.16378 16.1657 9.15831 16.1651 9.15247C16.1651 9.14209 16.1606 9.14144 16.1411 9.14793C16.1312 9.1515 16.1205 9.1515 16.1106 9.14793C16.0972 9.14286 16.0833 9.13938 16.0691 9.13755C16.0547 9.1357 16.0405 9.13222 16.0269 9.12716C16.015 9.12262 16.0018 9.12262 15.9899 9.12716C15.9737 9.13365 15.9678 9.13365 15.9685 9.12716C15.9691 9.12067 15.9646 9.12002 15.9555 9.12716C15.9464 9.1343 15.9412 9.13365 15.9373 9.12716C15.9334 9.12067 15.8394 9.11029 15.8335 9.12716C15.8277 9.14404 15.8283 9.13171 15.8283 9.12262C15.8283 9.11354 15.8218 9.1077 15.7998 9.10899C15.7861 9.11087 15.7723 9.10837 15.7602 9.10185C15.753 9.09472 15.7459 9.09537 15.7368 9.10185C15.7277 9.10834 15.7225 9.10899 15.7187 9.10185C15.7148 9.09472 15.7024 9.09342 15.6869 9.09666C15.6737 9.09964 15.6598 9.09706 15.6486 9.08952C15.6414 9.08368 15.6356 9.08109 15.6356 9.08498C15.6356 9.08888 15.6297 9.08498 15.6226 9.07979C15.6155 9.0746 15.609 9.07135 15.6038 9.07979C15.5986 9.08823 15.5947 9.09147 15.5869 9.08368C15.5708 9.07545 15.5531 9.0706 15.535 9.06941C15.5187 9.06911 15.5028 9.06441 15.4889 9.05578C15.4815 9.04773 15.4721 9.0417 15.4617 9.03826C15.4416 9.03112 15.4409 9.03112 15.4526 9.0467C15.4643 9.06227 15.4636 9.06227 15.4455 9.05189C15.4273 9.0415 15.4286 9.03566 15.4318 9.03112C15.4351 9.02658 15.4318 9.02398 15.4195 9.02723C15.4024 9.02892 15.3854 9.02271 15.3734 9.01036C15.3286 8.97531 15.3241 8.96363 15.3254 8.88057C15.3254 8.85526 15.3254 8.8345 15.3209 8.8345C15.3163 8.8345 15.3163 8.82346 15.3209 8.80984C15.3234 8.79393 15.3234 8.77772 15.3209 8.76182C15.3181 8.73982 15.321 8.71748 15.3293 8.69692C15.341 8.66318 15.3416 8.65799 15.3293 8.65215C15.317 8.64631 15.3183 8.64371 15.3254 8.63722C15.3313 8.63181 15.3336 8.62347 15.3312 8.61581C15.3312 8.60867 15.3312 8.60348 15.3364 8.60413C15.3416 8.60478 15.3449 8.5905 15.3442 8.57298C15.3436 8.55546 15.3442 8.53988 15.3514 8.53729C15.3591 8.50399 15.3591 8.46935 15.3514 8.43606C15.3494 8.43229 15.3509 8.42768 15.3546 8.42567C15.362 8.40285 15.3653 8.37891 15.3643 8.35494C15.3633 8.33288 15.3666 8.31083 15.3741 8.29005C15.3806 8.29005 15.3799 8.27058 15.3695 8.20374C15.3656 8.18168 15.3695 8.16351 15.3695 8.16091C15.3716 8.15993 15.3733 8.15813 15.374 8.15591C15.3747 8.1537 15.3745 8.15128 15.3734 8.14923C15.3723 8.14708 15.3721 8.14457 15.3728 8.14225C15.3735 8.13993 15.3752 8.13801 15.3773 8.1369C15.3838 8.12155 15.3865 8.10485 15.3851 8.08823C15.3851 8.06357 15.3851 8.0441 15.3929 8.0441C15.4007 8.0441 15.4046 8.00322 15.3929 7.99608C15.3812 7.98894 15.3832 7.99608 15.3799 8.00192C15.3767 8.00776 15.3754 8.01036 15.3754 8.00192C15.3757 7.99461 15.3806 7.98831 15.3877 7.98635C15.3974 7.9831 15.3987 7.97661 15.3935 7.95974C15.3901 7.95009 15.3901 7.93955 15.3935 7.92989C15.4037 7.90972 15.4095 7.88759 15.4104 7.865C15.4104 7.86067 15.4104 7.85548 15.4104 7.84942V7.84488V7.80854C15.4104 7.77026 15.415 7.73132 15.4169 7.69044C15.426 7.52821 15.4364 7.34196 15.448 7.12976C15.4578 6.94222 15.4695 6.73132 15.4824 6.49317C15.4824 6.48149 15.4824 6.46851 15.4857 6.45488C15.4889 6.44125 15.4948 6.41854 15.474 6.42892L15.4416 6.43217L15.2884 6.43801C15.021 6.44458 14.7536 6.42655 14.4896 6.38415C14.4571 6.37896 14.4247 6.37506 14.3922 6.36922L14.2949 6.34846C14.23 6.33353 14.1651 6.32185 14.1002 6.30433C13.9734 6.27054 13.8484 6.23003 13.7258 6.18298C13.6039 6.13677 13.4848 6.08369 13.3689 6.02399C13.3111 5.99414 13.2553 5.9591 13.1995 5.92665L13.1171 5.87733C13.0898 5.85981 13.0639 5.8397 13.0379 5.82153L12.8828 5.70796C12.8342 5.66643 12.7868 5.6236 12.7401 5.57818L12.67 5.51329C12.6479 5.49122 12.6272 5.46721 12.6051 5.4445C12.5636 5.39778 12.5227 5.3517 12.4812 5.30628C12.4396 5.26085 12.4085 5.20894 12.3728 5.16027C12.3367 5.11298 12.3031 5.0638 12.2722 5.01296C12.2417 4.9617 12.2118 4.91108 12.1839 4.85982C12.156 4.80855 12.134 4.75664 12.1093 4.70602C12.025 4.51188 11.9615 4.30937 11.9198 4.10187C11.8867 3.92072 11.8693 3.73703 11.8679 3.55288C11.8672 3.36554 11.8834 3.17853 11.9166 2.99415C11.953 2.78382 12.0106 2.57771 12.0886 2.37897C12.2794 1.90493 12.5731 1.47917 12.9484 1.13238C13.1659 0.929489 13.4053 0.751451 13.6622 0.601556C13.9455 0.433362 14.2465 0.296912 14.5597 0.194678C14.9263 0.0670763 15.3116 0.00128753 15.6998 0C15.9251 0.00332275 16.1491 0.035379 16.3663 0.0953923C16.5805 0.154651 16.7884 0.234405 16.9873 0.333549C17.143 0.410895 17.2946 0.496234 17.4416 0.589226C17.5895 0.680725 17.7329 0.783904 17.8731 0.887733C18.1498 1.09741 18.3997 1.34019 18.6174 1.61064C18.719 1.73856 18.8112 1.87367 18.8932 2.01492C18.9308 2.08565 18.9685 2.15184 18.9996 2.21998C19.0308 2.28812 19.0645 2.35366 19.084 2.41985C19.1286 2.5388 19.165 2.66065 19.193 2.78455C19.2779 3.17105 19.2555 3.57342 19.1281 3.94807C19.1086 4.00193 19.0924 4.0519 19.0749 4.09473L19.0243 4.20635C19.01 4.23814 18.9977 4.26345 18.9892 4.28227C18.9808 4.30109 18.973 4.31277 18.9704 4.31731C18.9678 4.32186 18.9503 4.35495 18.9263 4.39713C18.914 4.4179 18.9003 4.44256 18.8841 4.46981C18.8679 4.49707 18.8458 4.52562 18.8238 4.55742L18.7504 4.658L18.6576 4.76378L18.6077 4.81893L18.5506 4.8728L18.5064 4.91303C18.4104 4.99846 18.3055 5.07351 18.1937 5.13691C18.0945 5.19104 17.9925 5.23979 17.888 5.28292C17.888 5.28811 17.8711 5.2933 17.8543 5.29525C17.8385 5.29667 17.823 5.30016 17.8082 5.30563C17.7961 5.30922 17.7833 5.30922 17.7712 5.30563C17.7571 5.30197 17.7421 5.30483 17.7303 5.31342C17.712 5.32168 17.6925 5.32715 17.6726 5.32964C17.6339 5.33684 17.5944 5.33924 17.5551 5.33678C17.5302 5.33749 17.5055 5.34053 17.4811 5.34586C17.458 5.35434 17.4324 5.35293 17.4104 5.34197C17.3896 5.3341 17.3677 5.3295 17.3455 5.32834C17.2806 5.32834 17.1671 5.2297 17.1891 5.19856C17.1937 5.19207 17.1891 5.17584 17.1755 5.16222C17.1619 5.14859 17.1586 5.13431 17.1632 5.12977C17.1677 5.12523 17.1632 5.12133 17.1593 5.12069C17.1554 5.12004 17.1515 5.10641 17.1593 5.08305C17.1769 5.03266 17.1844 4.9793 17.1813 4.92601C17.1775 4.91711 17.1796 4.90679 17.1865 4.90005C17.1979 4.87335 17.2041 4.84471 17.2047 4.81569C17.2072 4.78496 17.2126 4.75454 17.2209 4.72484C17.2251 4.71366 17.2264 4.70162 17.2248 4.6898C17.2234 4.67723 17.2252 4.66451 17.23 4.65281C17.2416 4.61157 17.2498 4.56947 17.2547 4.52692C17.2631 4.46786 17.2728 4.41271 17.2754 4.40427C17.2783 4.39542 17.2783 4.38586 17.2754 4.37701C17.2729 4.33695 17.2762 4.29674 17.2852 4.25761C17.2884 4.24463 17.2929 4.22387 17.2955 4.21219C17.2986 4.18388 17.3075 4.1565 17.3215 4.13172C17.3319 4.11485 17.3462 4.1155 17.3676 4.10706C17.3754 4.10706 17.3825 4.10057 17.3831 4.09603C17.3838 4.09149 17.3896 4.09214 17.3981 4.09603C17.408 4.1041 17.422 4.10463 17.4325 4.09733C17.4396 4.09149 17.448 4.08889 17.4506 4.09149C17.4559 4.09437 17.4623 4.09437 17.4675 4.09149L17.5032 4.07851C17.5183 4.07414 17.5324 4.06687 17.5447 4.05709L17.5772 4.03633C17.5902 4.0227 17.6038 4.01362 17.607 4.01621C17.6103 4.01881 17.6129 4.01621 17.6129 4.01102C17.6129 4.00583 17.6129 4.00193 17.6557 3.98182L17.6674 3.97403L17.6745 3.96884C17.6868 3.95716 17.7005 3.94742 17.7135 3.93445L17.7511 3.89227C17.8637 3.76212 17.9422 3.60602 17.9795 3.43802C17.9847 3.41669 17.9881 3.39499 17.9899 3.37312C17.9899 3.35236 17.9983 3.33159 17.9983 3.31212C18.0009 3.27453 18.0009 3.2368 17.9983 3.19921C17.9983 3.18104 17.9983 3.16417 17.9951 3.146C17.9918 3.12783 17.9873 3.10252 17.9834 3.08111C17.9759 3.04016 17.9661 2.99965 17.9542 2.95976C17.916 2.83025 17.8601 2.70664 17.7881 2.59246C17.7001 2.45219 17.5974 2.32167 17.4818 2.20311C17.4526 2.17391 17.424 2.13822 17.387 2.10836C17.3501 2.07851 17.3124 2.03698 17.265 1.9974C17.1441 1.89185 17.0164 1.7943 16.8828 1.70538C16.7965 1.64957 16.7076 1.59182 16.6233 1.5438C16.5389 1.49578 16.4591 1.46138 16.3942 1.42894C16.3081 1.38682 16.2192 1.35061 16.1281 1.32057C16.0536 1.29641 15.9775 1.27754 15.9003 1.26411C15.797 1.24687 15.6921 1.24121 15.5876 1.24724C15.4482 1.25553 15.31 1.27726 15.1748 1.31213C15.0151 1.35346 14.8585 1.40615 14.7063 1.46982C14.4109 1.59194 14.1366 1.75968 13.8932 1.9669C13.7219 2.11291 13.5718 2.2822 13.4474 2.46982C13.4221 2.50551 13.4013 2.54574 13.376 2.58468C13.3507 2.62361 13.3325 2.66579 13.3111 2.70927C13.267 2.80293 13.2303 2.89992 13.2015 2.99934C13.1839 3.05061 13.1749 3.10642 13.1606 3.16157C13.1463 3.21673 13.1392 3.27449 13.1353 3.33289C13.1314 3.39129 13.1268 3.451 13.1229 3.51135C13.119 3.5717 13.1229 3.63205 13.1307 3.69175C13.1486 3.93348 13.2242 4.16739 13.3514 4.37377C13.4901 4.58264 13.6768 4.75529 13.8958 4.87734C14.1293 5.00795 14.3842 5.09586 14.6486 5.13691C14.7135 5.14534 14.7784 5.15897 14.8432 5.16416C14.9081 5.16936 14.973 5.17714 15.0379 5.17909C15.1028 5.18104 15.1677 5.18298 15.2274 5.17909L15.3196 5.1752H15.3695C15.4162 5.1752 15.4429 5.17 15.4785 5.16741L15.8776 5.10641C15.9425 5.09797 16.0074 5.0824 16.0723 5.06942L16.267 5.03048L16.622 4.95651L16.7874 4.92276L16.8076 4.91822C16.8134 4.91822 16.8231 4.91238 16.8205 4.91822V4.95326C16.8205 4.97662 16.8205 5.00388 16.8205 5.02854C16.8004 5.43087 16.7842 5.75663 16.7725 5.98506C16.7595 6.25177 16.7167 7.12392 16.6771 7.92275C16.674 7.96596 16.674 8.00933 16.6771 8.05254C16.6805 8.06104 16.6824 8.07002 16.683 8.07915C16.6835 8.1017 16.6891 8.12386 16.6992 8.14404C16.7076 8.16091 16.707 8.16415 16.6946 8.16351C16.6823 8.16286 16.6817 8.16351 16.6894 8.17519C16.7023 8.20748 16.7023 8.24348 16.6894 8.27577C16.6832 8.28462 16.6811 8.29574 16.6836 8.30627C16.6933 8.32222 16.6933 8.34224 16.6836 8.35818C16.6765 8.36986 16.6771 8.37376 16.6868 8.37441C16.6966 8.37506 16.6868 8.42437 16.6693 8.43541C16.6651 8.4424 16.6637 8.45077 16.6654 8.45877C16.666 8.4752 16.6641 8.49162 16.6596 8.50744C16.655 8.52246 16.655 8.53849 16.6596 8.55351C16.6654 8.56454 16.6641 8.57103 16.6596 8.57493C16.6526 8.58048 16.6484 8.58875 16.6479 8.59764C16.6475 8.63578 16.6492 8.67391 16.6531 8.71185C16.6529 8.74408 16.6446 8.77574 16.6291 8.804C16.622 8.804 16.6226 8.81568 16.6291 8.82995C16.6356 8.84423 16.6362 8.85202 16.6291 8.85916C16.622 8.86629 16.6129 8.91172 16.6187 8.98505C16.6187 9.00192 16.6187 9.0123 16.6109 9.011C16.6031 9.00971 16.6005 9.01814 16.5999 9.03047C16.5934 9.09537 16.5421 9.1674 16.5129 9.15442C16.5034 9.15181 16.4933 9.15454 16.4863 9.16156C16.4785 9.16869 16.4688 9.17194 16.4649 9.16869C16.461 9.16545 16.4565 9.16869 16.4558 9.17778C16.4552 9.18686 16.4558 9.19011 16.4442 9.18232C16.4205 9.17214 16.3934 9.17407 16.3715 9.18751C16.3717 9.19505 16.3679 9.20213 16.3615 9.2061C16.3551 9.21007 16.347 9.21032 16.3404 9.20675C16.3338 9.20318 16.3295 9.19635 16.3293 9.18881Z" fill="black"/>
<path d="M4.98217 24.5229C3.61229 24.3828 1.98413 24.059 1.47212 22.7806C1.31573 22.3912 1.29367 21.9603 1.28264 21.5405C1.20014 18.3127 1.67858 15.0952 2.69665 12.0311C2.9082 11.3958 3.16128 10.7404 3.6642 10.2978C4.22098 9.80787 4.99256 9.65862 5.72584 9.5483C11.7591 8.64913 17.9177 9.13015 23.7381 10.9552C25.2994 11.4464 26.9626 12.1453 27.7232 13.5944C28.0029 14.1265 28.1359 14.7228 28.2384 15.3153C28.6278 17.5833 28.5934 19.996 27.6375 22.0895C27.4532 22.4925 27.2229 22.8961 26.8588 23.1453C26.57 23.34 26.2216 23.4256 25.8815 23.5054C20.1229 24.8636 14.2735 26.2309 8.36373 25.9519C9.2599 25.8033 9.79786 24.6969 9.48378 23.8448C9.1697 22.9928 8.18787 22.4944 7.28457 22.5917C6.38126 22.6891 5.58373 23.2874 5.086 24.0466" fill="url(#paint0_linear_8_41)"/>
<path d="M5.01072 24.1713C5.00257 24.1876 4.99856 24.2056 4.99904 24.2238C4.99904 24.2504 4.99255 24.2718 4.98866 24.2712C4.98476 24.2705 4.98282 24.2783 4.98476 24.2874C4.98707 24.2954 4.98454 24.304 4.97827 24.3095C4.96465 24.3166 4.96465 24.3328 4.97827 24.327C4.9919 24.3212 4.98671 24.327 4.98217 24.327C4.97767 24.3309 4.97189 24.333 4.96594 24.3328C4.95621 24.3328 4.95491 24.3367 4.9601 24.3569C4.96239 24.3672 4.96101 24.3779 4.95621 24.3874C4.94997 24.4003 4.9456 24.4141 4.94323 24.4282C4.94066 24.4424 4.9363 24.4561 4.93025 24.4691C4.926 24.4813 4.926 24.4946 4.93025 24.5068C4.93544 24.523 4.93544 24.5288 4.93025 24.5282C4.92506 24.5275 4.92311 24.5282 4.93025 24.5405C4.93739 24.5528 4.93609 24.5554 4.93025 24.5587C4.92441 24.5619 4.90819 24.6554 4.92117 24.6625C4.93415 24.6696 4.92571 24.6677 4.91663 24.667C4.90754 24.6664 4.90105 24.6722 4.9017 24.6949C4.90246 24.7087 4.89882 24.7223 4.89132 24.7339C4.88418 24.7404 4.88418 24.7482 4.89132 24.7572C4.89846 24.7663 4.89716 24.7722 4.89132 24.7754C4.88548 24.7787 4.88223 24.791 4.88418 24.8072C4.88665 24.8205 4.88334 24.8342 4.87509 24.8448C4.8686 24.8513 4.86601 24.8565 4.86925 24.8572C4.8725 24.8578 4.86925 24.863 4.86341 24.8695C4.85757 24.876 4.85368 24.8831 4.86341 24.889C4.87315 24.8948 4.87444 24.8987 4.86341 24.9058C4.85374 24.9214 4.84775 24.9389 4.84589 24.9571C4.84461 24.9736 4.83852 24.9894 4.82837 25.0025C4.81988 25.0092 4.81318 25.0179 4.8089 25.0278C4.80047 25.048 4.80112 25.0486 4.81734 25.0382C4.83356 25.0278 4.83421 25.0278 4.82188 25.0454C4.80955 25.0629 4.80501 25.0609 4.79982 25.057C4.79463 25.0532 4.79268 25.057 4.79528 25.0694C4.79615 25.0869 4.78869 25.1037 4.77516 25.1148C4.73622 25.157 4.72389 25.1609 4.63629 25.1537C4.62007 25.1499 4.60319 25.1499 4.58697 25.1537C4.58697 25.157 4.57529 25.157 4.56166 25.1537C4.54492 25.1508 4.52779 25.1508 4.51105 25.1537C4.48865 25.1543 4.46643 25.1496 4.44615 25.1401C4.41111 25.1245 4.40592 25.1245 4.39943 25.1362C4.39294 25.1479 4.38905 25.1466 4.38321 25.1362C4.37751 25.1303 4.36932 25.1274 4.36114 25.1284C4.35336 25.1284 4.34816 25.1284 4.34881 25.1219C4.34946 25.1155 4.33519 25.1122 4.31702 25.1109C4.29885 25.1096 4.28197 25.1044 4.28003 25.0999C4.2452 25.0891 4.2085 25.0858 4.17231 25.0901C4.16819 25.0915 4.1637 25.0896 4.16192 25.0856C4.13836 25.0757 4.1134 25.0696 4.08794 25.0674C4.06393 25.0654 4.04044 25.0593 4.01851 25.0493C4.01851 25.0421 3.99839 25.0408 3.92571 25.0408C3.90235 25.0408 3.88288 25.0376 3.88094 25.033C3.87867 25.0285 3.87357 25.0261 3.86861 25.0272C3.86377 25.029 3.85836 25.0267 3.85628 25.022C3.84064 25.013 3.82305 25.0079 3.80501 25.0071C3.77905 25.0025 3.75829 24.996 3.75959 24.9915C3.76089 24.987 3.71741 24.972 3.70832 24.9805C3.69924 24.9889 3.70832 24.9909 3.71222 24.9941C3.71611 24.9973 3.72065 25.0012 3.71222 24.9993C3.70489 24.9974 3.69918 24.9917 3.69729 24.9844C3.69729 24.974 3.68885 24.9714 3.67004 24.974C3.65907 24.976 3.64776 24.9746 3.63759 24.9701C3.61805 24.9564 3.596 24.9467 3.5727 24.9415L3.55582 24.937L3.38645 24.8942C3.19996 24.8472 3.01606 24.7904 2.83551 24.7241C2.40165 24.5728 1.99789 24.3461 1.64279 24.0545C1.20735 23.6807 0.901001 23.179 0.767382 22.621C0.707 22.3475 0.672455 22.069 0.664203 21.789C0.652522 21.5236 0.653171 21.2699 0.64798 20.9987C0.64798 20.46 0.655118 19.8883 0.691458 19.2842C0.764516 17.9321 0.933883 16.5869 1.19827 15.2589C1.40605 14.214 1.67319 13.1819 1.9984 12.1674C2.15674 11.6762 2.31767 11.1544 2.61293 10.632C2.76531 10.3597 2.95758 10.1116 3.18334 9.89616C3.41326 9.68128 3.67617 9.50469 3.96205 9.37312C4.5104 9.12199 5.04966 9.02659 5.54154 8.94937C6.03083 8.88448 6.50844 8.81245 6.98411 8.75924C7.45977 8.70602 7.92895 8.65411 8.39358 8.62426L9.08404 8.57105L9.76541 8.5386C14.2795 8.33329 18.7964 8.87597 23.1333 10.1447C23.912 10.3764 24.7628 10.6223 25.6505 11.0383C26.1211 11.2531 26.5662 11.5197 26.9776 11.8332C27.4404 12.1823 27.833 12.6158 28.1346 13.1109C28.4591 13.6359 28.6323 14.2323 28.7491 14.804C28.8651 15.3853 28.9503 15.9723 29.0042 16.5626C29.1132 17.778 29.0989 19.1005 28.7933 20.4776C28.6367 21.1938 28.3955 21.8889 28.0749 22.5483C27.8964 22.8974 27.6576 23.2926 27.2423 23.597C26.827 23.9013 26.3656 23.9967 26.0094 24.0837C24.5577 24.4243 23.0204 24.7871 21.3806 25.1375C18.7569 25.706 15.9036 26.2005 13.4163 26.4094C12.7953 26.4698 12.1969 26.499 11.6337 26.5314L10.8141 26.558C10.6843 26.5626 10.5545 26.5671 10.4247 26.5658H10.0354C9.81538 26.5658 9.59539 26.5703 9.39098 26.5658L8.79007 26.5489L8.4987 26.5398H8.46366L8.45977 26.5269L8.45198 26.5003L8.43706 26.4477C8.41759 26.3783 8.39877 26.3114 8.37995 26.2465C8.36113 26.1816 8.34361 26.1167 8.32674 26.059C8.31819 26.0328 8.31104 26.0061 8.30532 25.9792L8.32479 25.9915C8.3501 25.9967 8.37087 25.9811 8.38449 25.9162C8.40401 25.8116 8.41379 25.7054 8.4137 25.5989C8.4137 25.5016 8.4137 25.4042 8.4137 25.3082C8.39617 25.2764 8.45588 25.2524 8.49092 25.2264L8.60837 25.1485C8.683 25.0973 8.78358 25.0434 8.78878 24.998L8.87119 24.8565C8.88287 24.8351 8.90234 24.804 8.90753 24.7916L8.91726 24.7618C8.93272 24.7226 8.94509 24.6822 8.95425 24.6411C8.96578 24.6019 8.9736 24.5617 8.97761 24.521C8.98485 24.4823 8.98832 24.443 8.988 24.4036C8.99436 24.2619 8.96793 24.1207 8.91077 23.9909C8.85548 23.8669 8.7798 23.753 8.68689 23.6541C8.53257 23.495 8.34607 23.3706 8.13985 23.2894C8.04622 23.2521 7.94962 23.2228 7.85108 23.2018C7.62831 23.1573 7.39896 23.1573 7.17619 23.2018C6.95863 23.2466 6.74949 23.3255 6.55646 23.4354C6.44295 23.5 6.33448 23.5731 6.232 23.6541L6.15153 23.719L6.13012 23.7378C6.11455 23.7521 6.03667 23.8156 5.96399 23.8877C5.9164 23.9307 5.87295 23.978 5.83421 24.0291C5.83421 24.033 5.83031 24.0402 5.82123 24.0441C5.81214 24.048 5.80371 24.0564 5.80241 24.0622C5.79885 24.0687 5.79224 24.0729 5.78489 24.0733C5.77593 24.0733 5.76867 24.0805 5.76867 24.0895C5.76867 24.1018 5.74206 24.1252 5.70053 24.1589C5.69053 24.1685 5.68259 24.18 5.67717 24.1927C5.66938 24.2108 5.66224 24.2167 5.64602 24.2173C5.6325 24.2192 5.62031 24.2264 5.61228 24.2375C5.56726 24.2677 5.50974 24.2724 5.46043 24.2498C5.45021 24.2421 5.43744 24.2386 5.42474 24.24C5.40981 24.24 5.39488 24.2368 5.39229 24.2316C5.38969 24.2264 5.3858 24.2258 5.3832 24.2316C5.38061 24.2375 5.36828 24.2316 5.35011 24.2134C5.31159 24.1779 5.26781 24.1486 5.22032 24.1265C5.21093 24.125 5.2029 24.1189 5.19891 24.1103C5.18016 24.0896 5.15826 24.0721 5.13402 24.0583C5.10732 24.0431 5.0823 24.025 5.05939 24.0045C5.05145 23.9953 5.04111 23.9886 5.02954 23.985C5.01763 23.9815 5.00718 23.9742 4.99969 23.9643C4.96841 23.935 4.93501 23.9081 4.89975 23.8838C4.86562 23.8603 4.8333 23.8343 4.80306 23.8059C4.79741 23.7977 4.78769 23.7932 4.77775 23.7942C4.73823 23.7846 4.70238 23.7636 4.67457 23.7339L4.64278 23.6988C4.58697 23.6411 4.59021 23.5911 4.67393 23.4691C4.68692 23.4538 4.69644 23.4359 4.70183 23.4166C4.70183 23.4107 4.71481 23.3938 4.73493 23.3763C4.7594 23.3538 4.78117 23.3286 4.79982 23.301C4.80993 23.2825 4.82309 23.2659 4.83875 23.2517C4.85108 23.2446 5.03343 23.0363 5.10871 22.9623C5.12712 22.9392 5.14901 22.919 5.1736 22.9026C5.17879 22.9026 5.18398 22.8981 5.18593 22.8903C5.18788 22.8825 5.19826 22.8682 5.27873 22.8098L5.30339 22.7916L5.3248 22.7748C5.58666 22.5502 5.87736 22.3616 6.18917 22.2141C6.53074 22.0536 6.89769 21.9539 7.27353 21.9195C7.67457 21.8855 8.07829 21.9353 8.45912 22.0655C8.85122 22.1962 9.21001 22.411 9.51038 22.695C9.83225 22.9974 10.064 23.383 10.1801 23.8092C10.2879 24.2377 10.2701 24.6883 10.1288 25.107L10.0775 25.2543L10.0659 25.2783C10.0568 25.2991 10.0613 25.2874 10.0581 25.2939C10.0554 25.298 10.0521 25.3017 10.0483 25.3049C10.0483 25.3108 10.0191 25.3153 10.0328 25.3147H10.0587H10.134C10.3709 25.3147 10.5954 25.3147 10.8056 25.3062C11.2248 25.2894 11.5844 25.2861 11.8666 25.2647L12.6836 25.2141L13.3696 25.155C13.7985 25.1213 14.1859 25.0746 14.6239 25.0252C15.5 24.9182 16.5811 24.7903 18.5902 24.4217C20.6239 24.0493 22.5895 23.597 22.9704 23.5132L24.3715 23.1888L25.2897 22.9733C25.6142 22.8935 25.9905 22.8195 26.243 22.728C26.3553 22.6904 26.4604 22.634 26.5538 22.5613C26.6538 22.4777 26.7401 22.3789 26.8095 22.2686C26.975 22.0233 27.134 21.6515 27.267 21.2913C27.4062 20.9188 27.5172 20.5364 27.5992 20.1473C27.6878 19.7463 27.7491 19.3398 27.7829 18.9305C27.8212 18.5155 27.8355 18.0986 27.8257 17.682C27.8192 17.2647 27.792 16.8488 27.7465 16.4399C27.7011 16.0311 27.6421 15.6262 27.572 15.2381C27.5121 14.884 27.4187 14.5363 27.2929 14.1998C27.0664 13.6474 26.6919 13.1683 26.2105 12.815C25.8173 12.5247 25.3921 12.2804 24.9432 12.0869C24.4711 11.8852 23.9885 11.7093 23.4974 11.56C22.9601 11.3991 22.3909 11.2232 21.7861 11.0681C17.5709 9.95281 13.2006 9.54018 8.85107 9.84684C8.09897 9.8994 7.35854 9.97662 6.6285 10.0675C6.26834 10.1181 5.89715 10.1596 5.55647 10.2174C5.24221 10.2636 4.93347 10.3417 4.63499 10.4503C4.39049 10.5391 4.16881 10.6812 3.98606 10.8663C3.80558 11.0663 3.66012 11.2954 3.55582 11.5438C3.43484 11.8242 3.32998 12.1113 3.24174 12.4036C3.14311 12.7008 3.0555 12.9935 2.97114 13.2803C2.48077 14.9803 2.15695 16.724 2.00424 18.4867C1.97958 18.7722 1.94648 19.2206 1.92312 19.7845C1.89976 20.3484 1.89522 21.0441 1.92312 21.7793C1.94129 22.1356 1.98802 22.4393 2.12364 22.6813C2.25927 22.9234 2.4799 23.146 2.78036 23.3205C3.11232 23.4974 3.4672 23.6273 3.83486 23.7066L3.85693 23.7112C3.8948 23.7198 3.93316 23.726 3.97179 23.73C3.97996 23.7288 3.98827 23.7288 3.99645 23.73C4.01823 23.7333 4.0405 23.7313 4.06134 23.7241C4.07821 23.7177 4.08081 23.7183 4.07821 23.7306C4.07561 23.743 4.07821 23.7436 4.08859 23.7371C4.11984 23.7291 4.15301 23.7345 4.18009 23.7521C4.18721 23.7592 4.19733 23.7626 4.20735 23.7611C4.22319 23.7534 4.24216 23.7559 4.25537 23.7676C4.2651 23.7761 4.269 23.7761 4.27029 23.7676C4.27159 23.7592 4.31637 23.7741 4.3248 23.791C4.33055 23.7964 4.33846 23.7988 4.34622 23.7975C4.36167 23.7981 4.37687 23.8016 4.39099 23.8079C4.40443 23.8139 4.41943 23.8155 4.43382 23.8124C4.44485 23.8079 4.4507 23.8092 4.45394 23.8169C4.45776 23.8244 4.46506 23.8296 4.47341 23.8306C4.50915 23.8348 4.54516 23.8364 4.58113 23.8351C4.61171 23.8379 4.64102 23.8486 4.66614 23.8663C4.66614 23.8734 4.67717 23.8741 4.69145 23.8663C4.70572 23.8585 4.71286 23.8604 4.7187 23.8715C4.72454 23.8825 4.76672 23.8922 4.83746 23.8903C4.85433 23.8903 4.86406 23.8903 4.86212 23.8994C4.86017 23.9084 4.8686 23.9097 4.88029 23.9117C4.94064 23.9214 5.01007 23.9766 4.9945 24.0051C4.99113 24.0145 4.99312 24.0249 4.99969 24.0324C5.00618 24.0402 5.00877 24.0499 5.00553 24.0545C5.00228 24.059 5.00553 24.0629 5.01396 24.0635C5.0224 24.0642 5.02564 24.0674 5.01721 24.0759C5.00585 24.0988 5.00585 24.1257 5.01721 24.1485C5.01995 24.1523 5.02081 24.1571 5.01954 24.1615C5.01827 24.1659 5.01501 24.1695 5.01072 24.1713Z" fill="url(#paint1_linear_8_41)"/>
<path d="M4.59282 14.3887C4.11586 14.4646 3.85369 14.9727 3.68432 15.427C3.51301 15.889 3.35986 16.3673 3.35467 16.8598C3.34948 17.3523 3.52144 17.8682 3.90236 18.1804C4.4215 18.6067 5.23266 18.5444 5.77711 18.1499C6.32156 17.7553 6.62591 17.0979 6.73882 16.4347C6.83292 15.8838 6.80372 15.2887 6.52078 14.8053C6.23785 14.3218 5.66615 13.985 5.11845 14.0973" fill="#FFF6ED"/>
<path d="M26.8562 23.1453C27.2229 22.8961 27.4532 22.4925 27.6349 22.0895C28.5908 19.996 28.6278 17.5833 28.2358 15.3153C28.1333 14.7229 28.0003 14.1265 27.7206 13.5944C26.96 12.1453 25.2968 11.4464 23.7355 10.9552C22.2536 10.4898 20.7457 10.1112 19.2196 9.8215C18.9076 9.92386 18.6182 10.0856 18.3676 10.2978C17.8647 10.7404 17.6122 11.3958 17.4007 12.0311C16.3835 15.0953 15.9059 18.3129 15.9893 21.5405C16.0003 21.9603 16.0224 22.3899 16.1788 22.7806C16.6908 24.059 18.3202 24.3828 19.6888 24.523L19.7926 24.0447C20.0243 24.2874 20.243 24.5139 20.4545 24.7313C22.2715 24.3555 24.0795 23.9305 25.8789 23.5061C26.219 23.4256 26.5674 23.3419 26.8562 23.1453Z" fill="#DEDDDD"/>
<path d="M27.0625 23.4308C27.0625 23.4256 27.0541 23.4042 27.0379 23.3828C27.0217 23.3614 27.0119 23.3419 27.0158 23.3393C27.0197 23.3367 27.0158 23.3296 27.0087 23.3238C27.0011 23.3198 26.9971 23.3113 26.9989 23.303C27.0067 23.2874 26.9989 23.2751 26.9879 23.29C26.9769 23.3049 26.9821 23.2978 26.9834 23.29C26.9846 23.2836 26.9878 23.2777 26.9925 23.2731C27.0022 23.2666 26.9996 23.2621 26.9814 23.2517C26.9727 23.2456 26.9666 23.2363 26.9646 23.2258C26.9608 23.212 26.9552 23.1989 26.9477 23.1868C26.9397 23.1746 26.9336 23.1613 26.9295 23.1472C26.9251 23.1351 26.9163 23.1252 26.9049 23.1193C26.8899 23.1109 26.8867 23.1057 26.8919 23.1018C26.8971 23.0979 26.8951 23.0953 26.8841 23.0921C26.8731 23.0888 26.8698 23.0849 26.8724 23.0785C26.875 23.072 26.8224 22.9921 26.8075 22.9947C26.7926 22.9973 26.8017 22.9947 26.8075 22.9889C26.8134 22.9831 26.814 22.9753 26.7991 22.9591C26.7893 22.9497 26.7823 22.9378 26.779 22.9247C26.7791 22.9158 26.7728 22.9081 26.764 22.9065C26.7537 22.9026 26.7504 22.8987 26.7524 22.8916C26.7543 22.8844 26.7478 22.8753 26.7361 22.8643C26.7258 22.8559 26.7187 22.8442 26.716 22.8312C26.716 22.8234 26.7128 22.8176 26.7102 22.8195C26.7076 22.8215 26.7063 22.8156 26.705 22.8066C26.7037 22.7975 26.7011 22.7916 26.6914 22.7936C26.6816 22.7955 26.679 22.7936 26.6784 22.7825C26.6726 22.7657 26.664 22.7499 26.6531 22.7358C26.643 22.7232 26.6353 22.709 26.6304 22.6936C26.6296 22.6835 26.6265 22.6738 26.6213 22.6651C26.6115 22.6463 26.6115 22.6463 26.6115 22.6651C26.6115 22.6839 26.6115 22.6807 26.6044 22.6618C26.5973 22.643 26.6044 22.6417 26.6044 22.6424C26.6044 22.643 26.6076 22.6391 26.5979 22.6313C26.5863 22.6198 26.5784 22.6052 26.5752 22.5892C26.5603 22.5418 26.5616 22.5334 26.5966 22.497C26.607 22.4853 26.6135 22.4743 26.6115 22.4724C26.6096 22.4704 26.6115 22.4646 26.6193 22.4587C26.6271 22.4519 26.6329 22.4432 26.6362 22.4334C26.6433 22.4212 26.6543 22.4116 26.6673 22.4062C26.6901 22.3951 26.692 22.3925 26.6849 22.3822C26.6777 22.3718 26.679 22.3705 26.6849 22.3711C26.6906 22.3717 26.696 22.3682 26.6978 22.3627C26.6978 22.3568 26.7024 22.3556 26.7063 22.3588C26.7102 22.362 26.7186 22.3556 26.7245 22.3458C26.7303 22.3361 26.7394 22.327 26.7439 22.3276C26.7485 22.3283 26.7822 22.277 26.7809 22.2628C26.7809 22.2628 26.7809 22.2576 26.7874 22.2582C26.7939 22.2589 26.8075 22.24 26.8218 22.2154C26.8361 22.1907 26.851 22.1719 26.8542 22.1739C26.8575 22.1758 26.8666 22.1641 26.8808 22.109C26.886 22.0914 26.8932 22.0785 26.8984 22.0791C26.9004 22.0791 26.9023 22.0783 26.9037 22.0768C26.905 22.0753 26.9057 22.0733 26.9055 22.0713C26.9053 22.0692 26.9061 22.0671 26.9076 22.0656C26.9091 22.0641 26.9112 22.0633 26.9133 22.0635C26.9178 22.0635 26.9289 22.048 26.9373 22.0298C26.9457 22.0116 26.9555 21.9967 26.9594 21.9986C26.9633 22.0006 26.9847 21.9707 26.9782 21.9617C26.9765 21.9597 26.974 21.9586 26.9714 21.9586C26.9688 21.9586 26.9663 21.9597 26.9646 21.9617C26.9574 21.9668 26.9568 21.9662 26.96 21.9617C26.9633 21.9557 26.9703 21.9528 26.9769 21.9545C26.9866 21.9545 26.9899 21.9513 26.9905 21.935C26.9903 21.9259 26.9933 21.9169 26.9989 21.9097C27.0087 21.9045 27.0178 21.8948 27.0359 21.8643L27.0431 21.8513V21.8513V21.8513L27.0496 21.8371L27.0749 21.778L27.1806 21.5314C27.3404 21.1338 27.4705 20.725 27.57 20.3082C27.7971 19.3575 27.9211 18.1051 27.7647 16.5217C27.7498 16.3796 27.7361 16.2381 27.716 16.0973C27.6959 15.9565 27.6797 15.8157 27.6557 15.6761C27.6135 15.3965 27.5642 15.1194 27.5051 14.8624C27.4505 14.6162 27.3758 14.3748 27.2819 14.1408C27.2387 14.0318 27.187 13.9264 27.1274 13.8254L27.0411 13.6755L26.9418 13.5334C26.925 13.51 26.91 13.4854 26.8919 13.4627L26.8361 13.3978C26.7984 13.3536 26.764 13.3076 26.7251 13.268C26.6427 13.1849 26.5668 13.098 26.4766 13.022C26.302 12.8634 26.1149 12.7191 25.9172 12.5905C25.515 12.3351 25.0899 12.1178 24.6472 11.9416C24.2073 11.7644 23.7653 11.6171 23.3267 11.4828C22.888 11.3484 22.4649 11.2232 22.0593 11.1135C21.2475 10.8922 20.5064 10.7177 19.8569 10.5801L19.3286 10.4717L19.2819 10.462C19.2761 10.462 19.2702 10.462 19.265 10.462L19.2482 10.4679L19.2092 10.4854L19.1554 10.51C19.0166 10.5737 18.8871 10.656 18.7705 10.7547C18.6478 10.8638 18.5404 10.9891 18.4513 11.1272C18.2527 11.4276 18.095 11.8345 17.9399 12.314C17.7848 12.7936 17.6265 13.3069 17.4792 13.8604C17.3319 14.414 17.1937 15.0064 17.0684 15.6424C16.9432 16.2783 16.8367 16.9578 16.7517 17.6839C16.6667 18.4101 16.6044 19.1823 16.5785 20.0032C16.5785 20.1057 16.5726 20.2089 16.5694 20.3134C16.5661 20.4179 16.5694 20.5223 16.5694 20.6275C16.5694 20.7326 16.5694 20.8397 16.5694 20.9467C16.5694 21.0538 16.5694 21.1615 16.5739 21.2712C16.5772 21.4879 16.5791 21.7125 16.594 21.913C16.6044 22.0997 16.6353 22.2846 16.6862 22.4646C16.7681 22.7259 16.9222 22.9587 17.1307 23.1362C17.3731 23.3351 17.6491 23.489 17.9458 23.5905C18.2685 23.7037 18.6005 23.7886 18.938 23.8442C19.1086 23.874 19.28 23.8987 19.4506 23.9195L19.7057 23.9487L19.7375 23.9526H19.7459C20.3105 23.5437 18.9789 24.51 19.1158 24.4068V24.401L19.1197 24.3847L19.1333 24.3199C19.143 24.277 19.1521 24.2348 19.1612 24.1901C19.18 24.1057 19.1982 24.022 19.2164 23.9389V23.9311V23.9273C21.2021 23.3685 19.7673 23.7735 20.2112 23.6489V23.6489L20.2222 23.6605L20.2443 23.6833L20.2877 23.7287L20.3734 23.8176L20.6193 24.0739L20.644 24.0992L20.6771 24.0927L20.9574 24.0337C21.4818 23.9227 21.9094 23.8286 22.2014 23.7637C23.3695 23.5042 24.3864 23.2634 24.4616 23.2446L24.9626 23.1239L25.7855 22.9292C25.8101 22.9234 25.925 22.8987 26.0288 22.8721C26.0907 22.8594 26.151 22.8398 26.2086 22.8137C26.2086 22.8098 26.217 22.8072 26.2267 22.8079C26.2348 22.8092 26.2431 22.8076 26.2501 22.8033C26.2558 22.7997 26.2632 22.7997 26.2689 22.8033C26.2722 22.8054 26.2763 22.806 26.2801 22.8051C26.2839 22.8041 26.2871 22.8016 26.289 22.7981C26.2949 22.7877 26.3254 22.7806 26.3701 22.7748C26.3814 22.7721 26.3917 22.7665 26.4 22.7585C26.4117 22.7475 26.4195 22.7462 26.4318 22.7533C26.4424 22.7579 26.4543 22.7579 26.4649 22.7533C26.5145 22.7548 26.5608 22.7787 26.5908 22.8182C26.5974 22.8287 26.6068 22.837 26.618 22.8422C26.6285 22.8466 26.6373 22.8541 26.6433 22.8637C26.6433 22.8689 26.6472 22.8714 26.6505 22.8695C26.6537 22.8676 26.6628 22.8779 26.6738 22.8994C26.6972 22.9466 26.7272 22.9903 26.7627 23.0291C26.7708 23.0339 26.7759 23.0425 26.7764 23.0519C26.7869 23.0785 26.8013 23.1035 26.8192 23.1258C26.8377 23.1505 26.8536 23.177 26.8666 23.205C26.8702 23.2165 26.8772 23.2267 26.8867 23.2342C26.8966 23.242 26.9035 23.253 26.9062 23.2653C26.9257 23.3018 26.9475 23.3369 26.9717 23.3705C26.9944 23.4052 27.0136 23.4422 27.0288 23.4808C27.0306 23.4906 27.0379 23.4985 27.0476 23.5009C27.0821 23.5237 27.1077 23.5576 27.1203 23.5969C27.1235 23.6093 27.1294 23.63 27.1339 23.643C27.1599 23.7196 27.1268 23.7728 26.9749 23.8559C26.9538 23.8651 26.9344 23.8781 26.9178 23.8942C26.9017 23.9063 26.8827 23.9141 26.8627 23.9169C26.8275 23.9264 26.7936 23.9399 26.7614 23.9571C26.7412 23.9688 26.7193 23.9776 26.6965 23.9831C26.6881 23.9831 26.6135 24.0071 26.5317 24.0324C26.45 24.0577 26.3611 24.0836 26.3156 24.0973C26.2905 24.1079 26.2637 24.1141 26.2365 24.1154C26.2326 24.1154 26.2261 24.1154 26.2209 24.12C26.2157 24.1245 26.2014 24.133 26.1145 24.1433L26.0885 24.1466H26.0814H26.0742H26.069L25.6018 24.2556L23.5655 24.7332C22.8724 24.8909 22.1917 25.0421 21.6044 25.1687L20.6492 25.3705L20.315 25.4399L20.2352 25.4568H20.2306H20.2267L20.2228 25.447L20.2086 25.4328L20.1813 25.4042L20.0742 25.2932L19.7037 24.9117L19.3792 24.5729L19.3423 24.5346L19.3241 24.5158L19.315 24.5067V24.5067V24.5067L20.4474 24.1888V24.192V24.1979L20.426 24.2958C20.4123 24.3607 20.3987 24.4211 20.3857 24.4808C20.3728 24.5405 20.3604 24.6002 20.3474 24.6579V24.6631V24.6664C18.9107 25.7086 19.949 24.9552 19.6278 25.1855V25.1855H19.6161H19.5934L19.548 25.181L19.4565 25.1706C19.3338 25.1576 19.2105 25.1414 19.0788 25.1232C18.7595 25.0791 18.4428 25.018 18.1301 24.9402C17.9038 24.8843 17.6811 24.8152 17.463 24.7332C17.1742 24.6254 16.8985 24.4857 16.6408 24.3166C16.4869 24.2144 16.3423 24.0989 16.2086 23.9714C16.0749 23.8425 15.9544 23.7006 15.8491 23.5476C15.7481 23.4021 15.6626 23.2463 15.594 23.083C15.5316 22.9362 15.4821 22.7842 15.4461 22.6287C15.3957 22.4025 15.364 22.1724 15.3513 21.9409C15.341 21.767 15.339 21.6502 15.3371 21.5931C15.328 21.17 15.3137 20.462 15.3513 19.6054C15.389 18.7488 15.474 17.7475 15.6194 16.743C15.7593 15.7749 15.9495 14.8147 16.1891 13.8663C16.4072 12.9967 16.6395 12.2654 16.7972 11.7897C16.8984 11.4771 17.02 11.1714 17.1612 10.8747C17.3401 10.4935 17.5883 10.1489 17.8932 9.85851C18.0673 9.69836 18.2609 9.56079 18.4694 9.44903C18.5207 9.42178 18.5726 9.39517 18.6245 9.37051C18.6511 9.35754 18.6771 9.34586 18.7031 9.33417L18.7952 9.29459C18.8809 9.25955 18.9672 9.2297 19.0548 9.1966L19.1197 9.17324C19.1417 9.1661 19.1631 9.15247 19.1846 9.16156L19.3221 9.18557L19.7167 9.26279L20.0126 9.32314C20.2105 9.36467 20.4117 9.40815 20.6142 9.45293C21.426 9.63528 22.2696 9.85072 23.1158 10.1019C23.5395 10.2264 23.9594 10.3549 24.3903 10.5016C24.8242 10.6474 25.2497 10.8173 25.6648 11.0104C26.0885 11.2061 26.4926 11.4416 26.8718 11.7138C27.2547 11.9885 27.5966 12.3162 27.8873 12.6872C28.1655 13.0495 28.3846 13.4536 28.5363 13.8845C28.6639 14.2574 28.7613 14.64 28.8276 15.0285C28.9413 15.6497 29.0208 16.2766 29.0658 16.9065C29.0775 17.0415 29.0794 17.1706 29.0865 17.292C29.0937 17.4133 29.0963 17.5295 29.0976 17.6372C29.0989 17.7449 29.1021 17.8462 29.1015 17.9396C29.1008 18.033 29.0982 18.1181 29.0969 18.1953C29.084 18.865 29.0154 19.5324 28.8919 20.1907C28.7963 20.6809 28.6644 21.1633 28.4973 21.6339C28.4753 21.6988 28.4519 21.7579 28.4324 21.8202C28.413 21.8825 28.387 21.9454 28.3597 22.0064L28.204 22.3692L28.193 22.3938C28.1631 22.4587 28.1372 22.5184 28.1372 22.5236C28.1364 22.5338 28.1342 22.5439 28.1307 22.5535C28.1204 22.577 28.1149 22.6024 28.1145 22.6281C28.1145 22.6495 28.1145 22.6528 28.1002 22.6469C28.0859 22.6411 28.0878 22.6469 28.0898 22.6567C28.0841 22.6968 28.0646 22.7338 28.0346 22.7611C28.0245 22.7684 28.0172 22.7789 28.0139 22.791C28.0132 22.813 28.0021 22.8335 27.984 22.8461C27.9704 22.8552 27.9691 22.8598 27.9775 22.865C27.986 22.8702 27.9464 22.9182 27.9256 22.9221C27.9211 22.9221 27.9126 22.9331 27.9081 22.9441C27.8981 22.962 27.8859 22.9786 27.8718 22.9934C27.8575 23.0068 27.8468 23.0236 27.8406 23.0421C27.8406 23.0564 27.8322 23.0629 27.8231 23.0635C27.8128 23.066 27.8038 23.0723 27.7978 23.0811C27.7835 23.1025 27.7251 23.1894 27.718 23.2037C27.6927 23.2371 27.6606 23.2647 27.6239 23.2848C27.6154 23.2848 27.6083 23.2926 27.6012 23.3114C27.594 23.3302 27.5875 23.3387 27.5732 23.3393C27.559 23.34 27.5155 23.3815 27.4487 23.4561C27.4324 23.4743 27.4201 23.4814 27.4175 23.4762C27.4149 23.4711 27.4026 23.4762 27.3903 23.4866C27.3555 23.5136 27.3155 23.533 27.2728 23.5437C27.2345 23.5522 27.2079 23.5489 27.2027 23.5327C27.1975 23.5165 27.191 23.5184 27.1787 23.5178C27.1664 23.5171 27.1566 23.5126 27.1573 23.5067C27.1579 23.5009 27.1508 23.5016 27.1417 23.5067C27.1326 23.5119 27.1268 23.5139 27.13 23.5003C27.1333 23.4866 27.0976 23.4445 27.0794 23.4477C27.0612 23.4509 27.0561 23.4438 27.0625 23.4308Z" fill="black"/>
<path d="M4.52596 14.0428C4.52012 14.0467 4.52077 14.0714 4.52596 14.0967C4.53115 14.122 4.53245 14.1447 4.52596 14.146C4.51947 14.1473 4.52012 14.1551 4.52596 14.1635C4.53163 14.1703 4.53163 14.1801 4.52596 14.1869C4.51104 14.1979 4.51688 14.2135 4.53115 14.2031C4.54543 14.1927 4.54089 14.1979 4.53634 14.2031C4.53184 14.2087 4.52572 14.2128 4.51882 14.2148C4.50649 14.2148 4.50714 14.2219 4.51882 14.2394C4.52474 14.2482 4.52662 14.259 4.52401 14.2693C4.52169 14.2837 4.52169 14.2984 4.52401 14.3128C4.52594 14.327 4.52594 14.3414 4.52401 14.3556C4.52344 14.3685 4.52759 14.3812 4.53569 14.3913C4.54608 14.4049 4.54737 14.4107 4.54089 14.412C4.5344 14.4133 4.53505 14.4172 4.54089 14.4244C4.54673 14.4315 4.55062 14.4367 4.54608 14.4419C4.54254 14.4775 4.55124 14.5132 4.57074 14.5431C4.57658 14.5431 4.57593 14.547 4.57074 14.549C4.56554 14.5509 4.561 14.558 4.57074 14.5795C4.5753 14.5919 4.57728 14.6052 4.57658 14.6184C4.57399 14.6266 4.57655 14.6355 4.58307 14.6411C4.5902 14.6489 4.5915 14.6534 4.58826 14.6586C4.58501 14.6638 4.58826 14.6755 4.59345 14.6904C4.59871 14.7023 4.60115 14.7151 4.60059 14.7281C4.60059 14.7352 4.60059 14.741 4.60059 14.741C4.60059 14.741 4.60059 14.7462 4.60059 14.754C4.60059 14.7618 4.60059 14.7683 4.60708 14.7715C4.61357 14.7748 4.61551 14.7787 4.61421 14.7878C4.61537 14.8051 4.61842 14.8223 4.6233 14.839C4.62788 14.8543 4.63093 14.8699 4.63238 14.8858C4.63256 14.8954 4.63386 14.905 4.63628 14.9143C4.64082 14.9344 4.64147 14.9351 4.64147 14.9214C4.64147 14.9078 4.64147 14.9085 4.64147 14.9279C4.64147 14.9474 4.64147 14.9461 4.64147 14.9435C4.64147 14.9409 4.64147 14.9435 4.64147 14.9558C4.64713 14.9706 4.65148 14.9858 4.65445 15.0013C4.66483 15.0447 4.66808 15.0519 4.65445 15.0584C4.64082 15.0649 4.64926 15.0675 4.65055 15.0701C4.65185 15.0726 4.65055 15.0752 4.65055 15.0746C4.65055 15.0739 4.64407 15.0811 4.64342 15.0863C4.64277 15.0915 4.63693 15.0915 4.6259 15.0934C4.61486 15.0954 4.60837 15.0934 4.61616 15.1057C4.62395 15.1181 4.622 15.1161 4.61616 15.1122C4.61032 15.1083 4.60643 15.1122 4.60643 15.1122C4.60643 15.1122 4.60643 15.1168 4.59994 15.1122C4.59345 15.1077 4.5902 15.1122 4.58566 15.1174C4.58112 15.1226 4.57463 15.1272 4.57074 15.1252C4.56684 15.1233 4.54024 15.159 4.54283 15.1719C4.54283 15.1719 4.54283 15.1758 4.53699 15.1719C4.53115 15.168 4.52012 15.1843 4.50714 15.2024C4.49416 15.2206 4.48248 15.2375 4.47924 15.2355C4.47599 15.2336 4.46821 15.2433 4.45717 15.2907C4.45393 15.3056 4.44744 15.3166 4.4429 15.3166C4.43836 15.3166 4.43511 15.3166 4.43576 15.3231C4.43603 15.325 4.43533 15.327 4.4339 15.3283C4.43248 15.3296 4.4305 15.3301 4.42862 15.3296C4.42408 15.3296 4.41434 15.3432 4.40721 15.3595C4.40007 15.3757 4.39163 15.39 4.38709 15.3874C4.38255 15.3848 4.36438 15.4127 4.37152 15.4211C4.3753 15.4248 4.38136 15.4248 4.38514 15.4211C4.39098 15.4166 4.39228 15.4172 4.38969 15.4211C4.38606 15.4263 4.37956 15.4287 4.37346 15.427C4.36308 15.427 4.36048 15.4302 4.36048 15.4451C4.36175 15.4537 4.3594 15.4624 4.35399 15.4691C4.33903 15.4799 4.32753 15.4948 4.3209 15.512L4.31441 15.5237C4.31441 15.5165 4.29884 15.5587 4.28586 15.5924C4.27288 15.6262 4.25601 15.6703 4.23913 15.7138L4.18722 15.8553C4.09972 16.0909 4.03454 16.3342 3.99254 16.5821C3.97796 16.6783 3.97037 16.7754 3.96983 16.8728C3.96955 16.9598 3.97715 17.0467 3.99254 17.1323C4.01623 17.278 4.06921 17.4173 4.14828 17.5418C4.17986 17.5891 4.21664 17.6326 4.25795 17.6716C4.26769 17.6794 4.27677 17.6898 4.28651 17.6969L4.31636 17.719C4.33529 17.7336 4.35524 17.7468 4.37606 17.7586C4.45626 17.8039 4.54434 17.8336 4.63563 17.8462C4.74518 17.8613 4.85642 17.8591 4.96528 17.8397C5.11056 17.8133 5.24938 17.7591 5.37411 17.68C5.39098 17.6684 5.40785 17.6599 5.42602 17.6456L5.48118 17.6035C5.51687 17.5723 5.55451 17.5386 5.5902 17.5042C5.6696 17.4237 5.74069 17.3354 5.8024 17.2407C5.95887 16.9913 6.0688 16.7156 6.12686 16.427C6.18435 16.1683 6.20099 15.9023 6.17618 15.6385C6.16585 15.5391 6.1463 15.4409 6.11778 15.3452C6.09905 15.284 6.07607 15.2241 6.04899 15.1661C6.01813 15.0998 5.98005 15.0371 5.93543 14.9792L5.88936 14.9266C5.87638 14.915 5.86859 14.9072 5.866 14.9059C5.8634 14.9046 5.84328 14.8838 5.81343 14.8598C5.79916 14.8468 5.78163 14.8332 5.76282 14.8189C5.74947 14.8078 5.73538 14.7976 5.72064 14.7884C5.67722 14.7569 5.63119 14.7291 5.58306 14.7054C5.54557 14.6858 5.50493 14.6731 5.46301 14.6677C5.46301 14.6716 5.45522 14.6677 5.45068 14.6677C5.44701 14.6633 5.44148 14.6609 5.43576 14.6612C5.43186 14.6612 5.42732 14.6612 5.42472 14.6521C5.42213 14.6431 5.41694 14.6431 5.4111 14.6476C5.40526 14.6521 5.38449 14.6476 5.35464 14.632C5.34679 14.6298 5.33848 14.6298 5.33063 14.632C5.3196 14.6353 5.31441 14.632 5.30857 14.6223C5.30434 14.6139 5.2959 14.6084 5.2865 14.608C5.27677 14.608 5.25925 14.5866 5.24367 14.5645C5.22817 14.5458 5.21748 14.5235 5.21253 14.4996C5.21099 14.4875 5.20604 14.476 5.19825 14.4665C5.19151 14.4578 5.18685 14.4475 5.18462 14.4367C5.18462 14.4315 5.18462 14.4276 5.18073 14.4283C5.17683 14.4289 5.17294 14.4153 5.17099 14.3919C5.16703 14.3389 5.15657 14.2866 5.13985 14.2362C5.13408 14.2286 5.13238 14.2187 5.1353 14.2096C5.13629 14.1811 5.13278 14.1526 5.12492 14.1252C5.11695 14.0953 5.11238 14.0646 5.11129 14.0337C5.11277 14.0218 5.11026 14.0097 5.10415 13.9993C5.0982 13.9882 5.09615 13.9754 5.09831 13.963C5.0985 13.9195 5.09503 13.8761 5.08793 13.8332C5.08101 13.7923 5.0784 13.7507 5.08014 13.7093C5.08263 13.6992 5.07878 13.6887 5.07041 13.6826C5.04617 13.6491 5.03551 13.6076 5.04056 13.5665C5.04056 13.5535 5.0464 13.5321 5.0477 13.5185C5.05613 13.4386 5.11259 13.3984 5.31506 13.3887C5.34187 13.3904 5.3688 13.388 5.39487 13.3815C5.41854 13.378 5.44271 13.3798 5.46561 13.3867C5.50825 13.3965 5.55169 13.4024 5.59539 13.4043C5.62313 13.404 5.65074 13.4081 5.67716 13.4166C5.68494 13.4231 5.78099 13.4412 5.88287 13.4756C5.97549 13.5051 6.06647 13.5396 6.15542 13.5788C6.19009 13.5904 6.22256 13.6077 6.25146 13.6301C6.25146 13.6353 6.26119 13.6398 6.27028 13.6405C6.27936 13.6411 6.30143 13.6457 6.40006 13.7203L6.42862 13.7423L6.44679 13.7566C6.48767 13.7832 6.52595 13.8157 6.56619 13.8475C6.73552 13.9851 6.88395 14.1467 7.00681 14.327C7.19282 14.6117 7.32134 14.93 7.38513 15.2641C7.41452 15.4076 7.43252 15.5532 7.439 15.6995C7.448 15.9021 7.43932 16.1051 7.41304 16.3063C7.38506 16.5234 7.34169 16.7383 7.28325 16.9493C7.23815 17.1141 7.18199 17.2756 7.11518 17.4328C7.01424 17.6684 6.88618 17.8914 6.73361 18.0973C6.56855 18.3171 6.37172 18.511 6.14958 18.6729C5.97607 18.797 5.78604 18.8962 5.58501 18.9675C5.40445 19.0324 5.21694 19.0759 5.02628 19.0973C4.79009 19.1225 4.55141 19.1104 4.31895 19.0616C3.76638 18.9449 3.29233 18.5927 3.0211 18.0973C2.80094 17.6883 2.69618 17.2271 2.71805 16.7631C2.73009 16.4961 2.77033 16.2312 2.8381 15.9727C2.85822 15.8929 2.90299 15.7229 2.96789 15.5282C3.00033 15.4302 3.03732 15.3257 3.07561 15.2213C3.09572 15.1693 3.11844 15.107 3.1405 15.0519L3.15153 15.0259C3.18008 14.9552 3.20604 14.8916 3.20604 14.8851C3.20708 14.874 3.20947 14.8631 3.21318 14.8527C3.22336 14.8274 3.22906 14.8007 3.23005 14.7735C3.23005 14.7501 3.2333 14.7469 3.24433 14.7527C3.25536 14.7586 3.25731 14.7527 3.25536 14.7417C3.26215 14.6981 3.28314 14.6579 3.31506 14.6275C3.32643 14.6195 3.33468 14.6078 3.33842 14.5944C3.34026 14.5701 3.35288 14.548 3.37282 14.534C3.38709 14.5237 3.38904 14.5191 3.3806 14.5139C3.37217 14.5087 3.41565 14.4555 3.43901 14.449C3.4486 14.443 3.45608 14.4342 3.46042 14.4237C3.47255 14.4042 3.48692 14.3861 3.50325 14.3699C3.52025 14.3551 3.53395 14.337 3.54348 14.3166C3.54868 14.3011 3.55517 14.2933 3.5649 14.2926C3.57662 14.2902 3.58701 14.2835 3.5941 14.2738C3.61616 14.2498 3.69274 14.1544 3.70766 14.1395C3.72695 14.1196 3.74877 14.1024 3.77256 14.0882C3.79207 14.0735 3.81404 14.0623 3.83745 14.0551C3.84653 14.0551 3.85692 14.0473 3.87119 14.0279C3.88547 14.0084 3.8952 13.9987 3.91143 13.9993C3.93487 13.995 3.95704 13.9854 3.97632 13.9714C4.00747 13.9526 4.04835 13.924 4.1061 13.8922C4.13271 13.8767 4.15023 13.8715 4.15088 13.8773C4.15153 13.8832 4.16775 13.8806 4.18787 13.8721C4.24078 13.8537 4.29669 13.8453 4.3527 13.8475C4.40072 13.852 4.43187 13.8656 4.42538 13.8819C4.41889 13.8981 4.43122 13.9 4.44484 13.9046C4.45847 13.9091 4.46626 13.9176 4.46237 13.9227C4.45847 13.9279 4.46691 13.9299 4.47989 13.9273C4.49287 13.9247 4.5 13.9273 4.48962 13.9377C4.47924 13.9481 4.49481 14.0026 4.51558 14.0058C4.53634 14.0091 4.53959 14.0337 4.52596 14.0428Z" fill="black"/>
<path d="M11.5182 14.3886C11.0412 14.4646 10.779 14.9727 10.6097 15.4269C10.4377 15.889 10.2852 16.3672 10.2793 16.8598C10.2735 17.3523 10.4461 17.8682 10.8277 18.1803C11.3468 18.6067 12.1573 18.5444 12.7018 18.1498C13.2462 17.7553 13.5506 17.0979 13.6635 16.4347C13.7576 15.8838 13.7284 15.2887 13.4455 14.8053C13.1625 14.3218 12.5928 13.9844 12.0464 14.0966" fill="#FFF6ED"/>
<path d="M11.452 14.0428C11.4461 14.0467 11.4468 14.0714 11.452 14.0967C11.4572 14.122 11.4585 14.1447 11.452 14.146C11.4455 14.1473 11.4468 14.1551 11.452 14.1635C11.4579 14.1702 11.4579 14.1802 11.452 14.1869C11.437 14.1979 11.4429 14.2135 11.4578 14.2031C11.4727 14.1927 11.4669 14.1979 11.4624 14.2031C11.458 14.2085 11.4521 14.2126 11.4455 14.2148C11.4325 14.2148 11.4332 14.2219 11.4455 14.2394C11.4516 14.2481 11.4537 14.2589 11.4513 14.2693C11.4487 14.2836 11.4487 14.2984 11.4513 14.3128C11.4533 14.327 11.4533 14.3414 11.4513 14.3556C11.4511 14.3685 11.4552 14.381 11.463 14.3913C11.474 14.4049 11.4747 14.4107 11.4682 14.412C11.4617 14.4133 11.463 14.4172 11.4682 14.4244C11.4734 14.4315 11.4786 14.4367 11.4734 14.4419C11.4703 14.4775 11.4793 14.5131 11.4987 14.5431C11.5039 14.5431 11.5032 14.547 11.4987 14.549C11.4942 14.5509 11.4896 14.558 11.4987 14.5795C11.5036 14.5918 11.5056 14.6051 11.5045 14.6184C11.5023 14.6266 11.5048 14.6353 11.511 14.6411C11.5182 14.6489 11.5195 14.6534 11.5162 14.6586C11.5144 14.6696 11.5164 14.6808 11.5221 14.6904C11.5273 14.7023 11.5298 14.7151 11.5292 14.7281C11.5292 14.7352 11.5292 14.741 11.5292 14.741C11.5292 14.741 11.5292 14.7462 11.5292 14.754C11.5292 14.7618 11.5292 14.7683 11.5363 14.7715C11.5435 14.7748 11.5441 14.7787 11.5428 14.7878C11.544 14.8051 11.547 14.8223 11.5519 14.839C11.5566 14.8543 11.5598 14.8699 11.5616 14.8858C11.5615 14.8954 11.5626 14.905 11.5649 14.9143C11.5701 14.9344 11.5701 14.9351 11.5701 14.9214C11.5701 14.9078 11.5701 14.9085 11.574 14.9279C11.5779 14.9474 11.574 14.9461 11.574 14.9435C11.574 14.9409 11.574 14.9435 11.574 14.9558C11.5794 14.9706 11.5835 14.9858 11.5863 15.0013C11.5967 15.0447 11.6006 15.0519 11.5863 15.0584C11.572 15.0649 11.5811 15.0675 11.5863 15.0701C11.5915 15.0726 11.5863 15.0752 11.5863 15.0746C11.5863 15.0739 11.5798 15.0811 11.5798 15.0863C11.5798 15.0915 11.5733 15.0915 11.5623 15.0934C11.5513 15.0954 11.5448 15.0934 11.5519 15.1057C11.559 15.1181 11.5577 15.1161 11.5519 15.1122C11.5461 15.1083 11.5428 15.1122 11.5422 15.1122C11.5415 15.1122 11.5422 15.1168 11.5357 15.1122C11.5292 15.1077 11.526 15.1122 11.5221 15.1174C11.5182 15.1226 11.511 15.1272 11.5065 15.1252C11.5019 15.1233 11.4766 15.159 11.4786 15.1719C11.4786 15.1719 11.4786 15.1758 11.4727 15.1719C11.4669 15.168 11.4559 15.1843 11.4435 15.2024C11.4312 15.2206 11.4182 15.2375 11.4156 15.2355C11.413 15.2336 11.404 15.2433 11.3936 15.2907C11.3897 15.3056 11.3838 15.3166 11.3786 15.3166C11.3768 15.3162 11.3748 15.3167 11.3734 15.318C11.3719 15.3193 11.3712 15.3212 11.3715 15.3231C11.3715 15.327 11.3715 15.3303 11.365 15.3296C11.3585 15.329 11.3507 15.3432 11.343 15.3595C11.3352 15.3757 11.3274 15.39 11.3235 15.3874C11.3196 15.3848 11.3001 15.4127 11.3073 15.4211C11.3112 15.4245 11.317 15.4245 11.3209 15.4211C11.3274 15.4166 11.328 15.4172 11.3254 15.4211C11.3228 15.425 11.317 15.4283 11.3092 15.427C11.3014 15.4257 11.2962 15.4302 11.2969 15.4451C11.2978 15.4537 11.2955 15.4622 11.2904 15.4691C11.2813 15.4743 11.2729 15.4821 11.2573 15.512C11.2549 15.5157 11.2527 15.5196 11.2508 15.5237C11.2508 15.5165 11.2346 15.5587 11.2216 15.5924L11.1749 15.7138C11.1587 15.7579 11.1418 15.8053 11.123 15.8553C11.0352 16.0908 10.97 16.3342 10.9283 16.5821C10.9137 16.6783 10.9061 16.7754 10.9056 16.8728C10.9054 16.9598 10.9128 17.0466 10.9276 17.1323C10.9513 17.278 11.0043 17.4173 11.0834 17.5418C11.1151 17.5889 11.1519 17.6324 11.1931 17.6716C11.2034 17.6794 11.2125 17.6898 11.2223 17.6969C11.2324 17.7037 11.2421 17.7111 11.2515 17.719C11.2706 17.7336 11.2908 17.7468 11.3118 17.7586C11.392 17.804 11.4801 17.8337 11.5714 17.8462C11.6809 17.8613 11.7922 17.8591 11.901 17.8397C12.0461 17.8132 12.1847 17.759 12.3092 17.68C12.3261 17.6684 12.343 17.6599 12.3611 17.6456L12.4163 17.6035C12.452 17.5723 12.4896 17.5386 12.5253 17.5042C12.6049 17.4239 12.676 17.3356 12.7375 17.2407C12.8942 16.9914 13.0042 16.7157 13.062 16.427C13.1193 16.1683 13.1362 15.9023 13.1119 15.6385C13.101 15.5392 13.0814 15.4411 13.0535 15.3452C13.0343 15.284 13.0112 15.2242 12.9841 15.1661C12.9532 15.0998 12.9151 15.0371 12.8705 14.9792L12.8245 14.9266C12.8173 14.9193 12.8097 14.9123 12.8017 14.9059C12.7972 14.9059 12.7784 14.8838 12.7485 14.8598C12.7326 14.8453 12.7159 14.8316 12.6986 14.8189C12.6849 14.8079 12.6706 14.7977 12.6557 14.7884C12.6123 14.7569 12.5663 14.7291 12.5182 14.7054C12.4807 14.6858 12.44 14.6731 12.3981 14.6677C12.3981 14.6716 12.391 14.6677 12.3858 14.6677C12.3821 14.6633 12.3766 14.6609 12.3709 14.6612C12.3709 14.6612 12.3624 14.6612 12.3598 14.6521C12.3572 14.6431 12.352 14.6431 12.3468 14.6476C12.3417 14.6521 12.3196 14.6476 12.2897 14.632C12.2821 14.6298 12.274 14.6298 12.2664 14.632C12.2621 14.6341 12.2571 14.6343 12.2528 14.6324C12.2484 14.6305 12.2451 14.6268 12.2437 14.6223C12.2396 14.6141 12.2314 14.6087 12.2223 14.608C12.2119 14.608 12.195 14.5866 12.1788 14.5645C12.1633 14.5458 12.1526 14.5235 12.1476 14.4996C12.1463 14.4876 12.1416 14.4761 12.134 14.4665C12.1267 14.4581 12.122 14.4477 12.1204 14.4367C12.1204 14.4315 12.1204 14.4276 12.1158 14.4283C12.1113 14.4289 12.1087 14.4153 12.1061 14.3919C12.1024 14.3389 12.092 14.2865 12.0749 14.2362C12.0697 14.2284 12.0683 14.2186 12.0711 14.2096C12.0713 14.1811 12.0676 14.1527 12.06 14.1252C12.0524 14.0953 12.0478 14.0646 12.0464 14.0337C12.0478 14.0219 12.0455 14.0099 12.0399 13.9993C12.0337 13.9883 12.0314 13.9755 12.0334 13.963C12.034 13.9195 12.0307 13.8761 12.0237 13.8332C12.0167 13.7923 12.0139 13.7507 12.0152 13.7093C12.0181 13.6992 12.0142 13.6884 12.0055 13.6826C11.9819 13.6488 11.9713 13.6075 11.9757 13.5665C11.9757 13.5535 11.9815 13.5321 11.9828 13.5185C11.9919 13.4386 12.0477 13.3984 12.2502 13.3887C12.277 13.3904 12.3039 13.388 12.33 13.3815C12.3536 13.378 12.3778 13.3798 12.4007 13.3867C12.4433 13.3965 12.4868 13.4024 12.5305 13.4043C12.5582 13.4041 12.5858 13.4082 12.6123 13.4166C12.62 13.4231 12.7154 13.4412 12.818 13.4756C12.9105 13.5054 13.0015 13.5398 13.0905 13.5788C13.125 13.5904 13.1572 13.6078 13.1859 13.6301C13.1859 13.6353 13.1956 13.6398 13.2054 13.6405C13.2151 13.6411 13.2365 13.6457 13.3352 13.7203L13.3637 13.7423L13.3819 13.7566C13.4228 13.7832 13.4611 13.8157 13.5019 13.8475C13.6711 13.9853 13.8195 14.1468 13.9426 14.327C14.1284 14.6152 14.2558 14.9371 14.3176 15.2745C14.3472 15.4179 14.365 15.5635 14.3708 15.7099C14.3802 15.9125 14.3715 16.1156 14.3449 16.3166C14.3172 16.5339 14.2739 16.7488 14.2151 16.9597C14.1706 17.1247 14.1144 17.2862 14.047 17.4432C13.9472 17.6786 13.8202 17.9016 13.6687 18.1077C13.5036 18.3274 13.3068 18.5214 13.0847 18.6833C12.9113 18.8075 12.7212 18.9067 12.5201 18.9779C12.3398 19.0428 12.1525 19.0864 11.962 19.1077C11.7258 19.1328 11.4872 19.1208 11.2547 19.072C10.7019 18.9558 10.2277 18.6034 9.95684 18.1077C9.73638 17.6988 9.6316 17.2375 9.6538 16.7735C9.66571 16.5066 9.70573 16.2416 9.7732 15.9831C9.79332 15.9033 9.83809 15.7333 9.90298 15.5386C9.93543 15.4406 9.97242 15.3361 10.0114 15.2316C10.0308 15.1797 10.0535 15.1174 10.0762 15.0623L10.0866 15.0363C10.1158 14.9656 10.1411 14.902 10.1411 14.8955C10.1422 14.8844 10.1446 14.8735 10.1483 14.863C10.1585 14.8378 10.1642 14.811 10.1652 14.7839C10.1652 14.7605 10.169 14.7573 10.1801 14.7631C10.1911 14.7689 10.1924 14.7631 10.1911 14.7521C10.1975 14.7083 10.2185 14.6681 10.2508 14.6379C10.262 14.6298 10.27 14.6181 10.2735 14.6048C10.2756 14.5806 10.2882 14.5585 10.3079 14.5444C10.3222 14.534 10.3241 14.5295 10.3164 14.5243C10.3086 14.5191 10.3507 14.4659 10.3748 14.4594C10.3839 14.4531 10.3912 14.4443 10.3955 14.4341C10.4078 14.4147 10.4222 14.3966 10.4383 14.3802C10.4555 14.3655 10.4694 14.3474 10.4792 14.327C10.4838 14.3115 10.4909 14.3037 10.5 14.303C10.5118 14.3004 10.5224 14.2938 10.5298 14.2842C10.5513 14.2602 10.6285 14.1648 10.6434 14.1499C10.6627 14.13 10.6845 14.1128 10.7083 14.0986C10.7278 14.0838 10.7498 14.0726 10.7732 14.0655C10.7823 14.0655 10.7927 14.0577 10.8069 14.0383C10.8212 14.0188 10.8316 14.0091 10.8478 14.0097C10.8713 14.0054 10.8935 13.9959 10.9127 13.9818C10.9445 13.963 10.9854 13.9344 11.0425 13.9026C11.0698 13.8871 11.0873 13.8819 11.0879 13.8877C11.0886 13.8935 11.1048 13.8909 11.1243 13.8825C11.1774 13.864 11.2335 13.8557 11.2897 13.8579C11.3378 13.8624 11.3683 13.876 11.3624 13.8922C11.3566 13.9085 11.3683 13.9104 11.3812 13.915C11.3942 13.9195 11.4027 13.9279 11.3994 13.9331C11.3962 13.9383 11.4033 13.9403 11.4163 13.9377C11.4293 13.9351 11.4364 13.9377 11.426 13.9481C11.4156 13.9584 11.4319 14.0129 11.452 14.0162C11.4721 14.0194 11.4656 14.0337 11.452 14.0428Z" fill="black"/>
<path d="M9.05355 26.7105C9.06014 26.6936 9.06194 26.6752 9.05874 26.6573C9.05874 26.6307 9.05874 26.6086 9.06458 26.6086C9.07042 26.6086 9.06977 26.6008 9.06458 26.5918C9.06117 26.5841 9.06271 26.5751 9.06847 26.569C9.08145 26.5606 9.07951 26.5444 9.06847 26.5522C9.05744 26.56 9.06069 26.5554 9.06523 26.5522C9.06896 26.5476 9.07429 26.5446 9.08015 26.5437C9.09054 26.5437 9.09119 26.5385 9.0834 26.5191C9.07983 26.5092 9.07983 26.4984 9.0834 26.4886C9.08784 26.4749 9.09045 26.4607 9.09119 26.4464C9.09198 26.4321 9.09459 26.4179 9.09897 26.4042C9.10266 26.3917 9.1015 26.3783 9.09573 26.3666C9.08859 26.351 9.08859 26.3452 9.09573 26.3452C9.10287 26.3452 9.10157 26.3413 9.09573 26.3328C9.08989 26.3244 9.08859 26.3186 9.09573 26.3147C9.1094 26.2812 9.1094 26.2437 9.09573 26.2102C9.08924 26.2102 9.09119 26.2056 9.10027 26.205C9.10936 26.2044 9.11455 26.1979 9.11195 26.1758C9.10948 26.1624 9.1113 26.1485 9.11714 26.1362C9.12349 26.1295 9.12349 26.1189 9.11714 26.1122C9.10936 26.1038 9.10936 26.0986 9.11714 26.094C9.12493 26.0895 9.12428 26.0772 9.11714 26.0622C9.11358 26.0492 9.11521 26.0352 9.12169 26.0233C9.12753 26.0162 9.12947 26.0103 9.12558 26.0103C9.12169 26.0103 9.12558 26.0045 9.13012 25.9973C9.13466 25.9902 9.13726 25.9824 9.12623 25.9785C9.1152 25.9746 9.1139 25.9701 9.12104 25.9617C9.12834 25.9451 9.1321 25.9272 9.13207 25.9091C9.13102 25.8926 9.13485 25.8761 9.1431 25.8617C9.1503 25.8538 9.15543 25.8442 9.15803 25.8338C9.16452 25.813 9.16387 25.8124 9.14894 25.8247C9.13402 25.8371 9.13466 25.8371 9.14375 25.8182C9.15283 25.7994 9.15867 25.8001 9.16322 25.8033C9.16776 25.8066 9.17036 25.8033 9.16322 25.791C9.16044 25.7737 9.16543 25.7562 9.17684 25.743C9.20864 25.6962 9.21967 25.691 9.30209 25.6865C9.3177 25.6875 9.33332 25.6846 9.34751 25.6781C9.34751 25.6748 9.35854 25.6729 9.37152 25.6742C9.38728 25.6751 9.40307 25.6733 9.41825 25.669C9.43981 25.6642 9.4623 25.6655 9.48314 25.6729C9.51753 25.6826 9.52272 25.682 9.52727 25.6729C9.53181 25.6638 9.53505 25.6612 9.54154 25.6677C9.54763 25.6729 9.55596 25.6746 9.56361 25.6722C9.57009 25.6722 9.57529 25.6722 9.57529 25.6768C9.57529 25.6813 9.58956 25.6839 9.60579 25.6826C9.62201 25.6813 9.63888 25.6826 9.64148 25.6872C9.67504 25.6918 9.70924 25.6887 9.74141 25.6781C9.74446 25.6757 9.74874 25.6757 9.75179 25.6781C9.77468 25.6838 9.79839 25.6856 9.82188 25.6833C9.84359 25.6802 9.86569 25.6818 9.88677 25.6878C9.88677 25.6943 9.90624 25.6923 9.97113 25.6755C9.99255 25.6703 10.0101 25.6696 10.0133 25.6755C10.0168 25.6787 10.0222 25.6787 10.0256 25.6755C10.0272 25.6738 10.0295 25.6728 10.0318 25.6728C10.0341 25.6728 10.0364 25.6738 10.038 25.6755C10.0534 25.6809 10.07 25.682 10.086 25.6787C10.11 25.6787 10.1295 25.6787 10.1301 25.6826C10.1308 25.6865 10.171 25.691 10.1768 25.6826C10.1781 25.6801 10.1782 25.6772 10.1769 25.6747C10.1756 25.6723 10.1731 25.6706 10.1704 25.6703C10.1619 25.667 10.1619 25.6657 10.1704 25.6651C10.1777 25.6648 10.1845 25.6693 10.1872 25.6761C10.1911 25.6859 10.1976 25.6865 10.2138 25.6794C10.2227 25.6745 10.2331 25.6729 10.243 25.6748C10.2635 25.6836 10.2857 25.6873 10.3079 25.6859H10.3527H10.4306L10.8005 25.6729L11.2677 25.6417C11.4455 25.632 11.6441 25.6223 11.8647 25.6034C13.1334 25.5113 14.2657 25.3672 14.9796 25.2634C15.1671 25.2374 15.376 25.1985 15.6162 25.1641C15.7356 25.144 15.864 25.1258 15.9997 25.0992L16.4338 25.0207C17.0503 24.9097 17.8173 24.7527 18.7946 24.5171C19.5785 24.3322 20.463 24.0765 20.7712 23.9863C20.9257 23.9428 21.0697 23.8994 21.1768 23.8643C21.2839 23.8293 21.3559 23.8059 21.3656 23.7994C21.3754 23.7929 21.4247 23.778 21.4954 23.7546L21.7161 23.6839C21.7401 23.6768 21.8543 23.643 21.9692 23.6054C22.0409 23.5846 22.1113 23.5594 22.1801 23.5301C22.1801 23.5256 22.1911 23.5223 22.2021 23.5223C22.2125 23.5231 22.2229 23.5208 22.232 23.5158C22.2398 23.5122 22.2488 23.5122 22.2566 23.5158C22.2656 23.5197 22.2759 23.517 22.2819 23.5094C22.3162 23.4915 22.3543 23.4822 22.3929 23.4821C22.4085 23.4792 22.4235 23.4735 22.437 23.4652C22.4496 23.4542 22.4677 23.4522 22.4825 23.46C22.497 23.4649 22.5127 23.4649 22.5272 23.46C22.5649 23.4471 22.6713 23.5042 22.6706 23.5366C22.6706 23.5437 22.681 23.5567 22.694 23.5652C22.707 23.5736 22.7167 23.5853 22.7154 23.5911C22.7141 23.597 22.7154 23.6002 22.7219 23.5983C22.7284 23.5963 22.7336 23.6086 22.7381 23.6327C22.7473 23.6851 22.7648 23.7357 22.79 23.7826C22.797 23.789 22.7999 23.7986 22.7978 23.8079C22.8004 23.8364 22.8079 23.8643 22.8199 23.8903C22.8316 23.919 22.8406 23.9487 22.8465 23.9792C22.8473 23.9911 22.8513 24.0025 22.8582 24.0123C22.8654 24.0226 22.8694 24.0347 22.8699 24.0473C22.8768 24.0894 22.8873 24.1309 22.901 24.1713C22.9143 24.2105 22.9247 24.2506 22.9322 24.2913C22.9323 24.3011 22.9371 24.3103 22.9451 24.316C22.9699 24.3483 22.9855 24.3866 22.9906 24.4269C22.9906 24.4393 22.9906 24.4607 22.9958 24.4737C23.0081 24.5535 22.9808 24.5866 22.8621 24.6314C22.8453 24.6361 22.83 24.6448 22.8173 24.6567C22.8173 24.6618 22.7978 24.6677 22.7745 24.6696C22.7467 24.6734 22.7197 24.6817 22.6947 24.6943C22.6792 24.7038 22.662 24.7102 22.644 24.7131C22.5351 24.7422 22.428 24.7779 22.3235 24.8202C22.3011 24.8316 22.277 24.8391 22.2521 24.8423C22.2488 24.8423 22.2423 24.8423 22.2385 24.8474C22.2346 24.8526 22.2222 24.8617 22.1385 24.8773L22.1132 24.8818L22.0976 24.8857L21.9679 24.924L21.4176 25.0934L20.5123 25.3575C20.145 25.4587 20.1028 25.4743 19.4825 25.6288L18.8043 25.7916C18.694 25.8195 18.5084 25.8617 18.2852 25.9136L17.9237 25.9967L17.5298 26.0785C16.9958 26.194 16.4474 26.2874 16.1827 26.338C15.5779 26.436 14.5681 26.5976 13.6239 26.6962C12.6798 26.7949 11.8069 26.8663 11.4825 26.8851L10.9594 26.9182C10.84 26.9273 10.709 26.9318 10.574 26.9376L10.3456 26.948C10.3021 26.949 10.2588 26.9527 10.2158 26.9591C10.2075 26.9635 10.1985 26.9664 10.1892 26.9675C10.1662 26.9699 10.144 26.9774 10.1243 26.9896C10.1074 26.9999 10.1042 26.9993 10.1042 26.9896C10.1042 26.9798 10.1009 26.9772 10.0918 26.985C10.06 27.0003 10.0235 27.0026 9.98995 26.9915C9.98009 26.9868 9.96866 26.9868 9.9588 26.9915C9.9425 27.0016 9.9219 27.0016 9.90559 26.9915C9.89326 26.9857 9.88937 26.9863 9.89002 26.996C9.89066 27.0058 9.83875 26.996 9.82512 26.9837C9.82512 26.9798 9.8115 26.9792 9.80111 26.9837C9.78477 26.9862 9.76814 26.9862 9.75179 26.9837C9.7366 26.9788 9.72027 26.9788 9.70507 26.9837C9.69469 26.9896 9.68755 26.9896 9.68301 26.9837C9.67692 26.9769 9.66814 26.9731 9.659 26.9733C9.63823 26.9733 9.55582 26.9837 9.54414 26.987C9.51159 26.9891 9.47901 26.9831 9.44939 26.9694C9.44485 26.9629 9.43706 26.9636 9.42279 26.9694C9.40851 26.9753 9.40072 26.9785 9.39294 26.9694C9.38515 26.9604 9.33908 26.9571 9.26315 26.9694C9.24563 26.9694 9.23525 26.9694 9.23655 26.9636C9.23784 26.9578 9.22811 26.9539 9.21578 26.9539C9.15089 26.9539 9.07367 26.9058 9.08599 26.876C9.08777 26.8665 9.08459 26.8567 9.07756 26.85C9.06977 26.8429 9.06588 26.8338 9.06847 26.8286C9.07107 26.8234 9.06847 26.8208 9.05874 26.8208C9.04901 26.8208 9.04576 26.8208 9.05355 26.8092C9.06228 26.785 9.05865 26.7581 9.04381 26.7371C9.03742 26.7338 9.03447 26.7263 9.03694 26.7195C9.03942 26.7128 9.04653 26.7089 9.05355 26.7105V26.7105Z" fill="black"/>
<path d="M0.241733 21.1725C0.259393 21.1771 0.277933 21.1771 0.295594 21.1725C0.3222 21.1693 0.343614 21.1725 0.344263 21.1725C0.344912 21.1725 0.35205 21.1771 0.361135 21.1725C0.368284 21.1681 0.377348 21.1681 0.384497 21.1725C0.393582 21.1855 0.409805 21.1823 0.40072 21.1693C0.391635 21.1563 0.396826 21.1615 0.40072 21.1654C0.405408 21.1693 0.408804 21.1745 0.410454 21.1803C0.410454 21.1907 0.415645 21.1914 0.434464 21.1803C0.444541 21.1768 0.455535 21.1768 0.465613 21.1803C0.479314 21.1843 0.493524 21.1863 0.507793 21.1862C0.52224 21.1859 0.536651 21.1877 0.550622 21.1914C0.563249 21.1941 0.576437 21.192 0.587611 21.1855C0.602536 21.1771 0.608377 21.1764 0.609026 21.1855C0.609675 21.1946 0.613568 21.192 0.621355 21.1855C0.629142 21.179 0.634983 21.1771 0.639525 21.1855C0.674124 21.1955 0.71121 21.192 0.743354 21.1758C0.743354 21.1693 0.747896 21.1706 0.748545 21.1797C0.749194 21.1888 0.756981 21.1933 0.779045 21.1888C0.792168 21.1848 0.806155 21.1848 0.819278 21.1888C0.825586 21.1949 0.835682 21.1949 0.841991 21.1888C0.850427 21.181 0.855618 21.1803 0.860809 21.1888C0.866001 21.1972 0.877682 21.1946 0.892607 21.1888C0.905003 21.1833 0.919146 21.1833 0.931543 21.1888C0.93933 21.194 0.94517 21.1953 0.94517 21.1888C0.94517 21.1823 0.950361 21.1888 0.958149 21.1888C0.965936 21.1888 0.973074 21.1953 0.976319 21.1842C0.979563 21.1732 0.984106 21.1719 0.993191 21.1777C1.01024 21.1838 1.02836 21.1862 1.0464 21.1849C1.06255 21.1829 1.07893 21.1853 1.09377 21.192C1.10227 21.1987 1.11231 21.2032 1.12298 21.205C1.14374 21.2095 1.14439 21.2089 1.13076 21.1959C1.11714 21.1829 1.11778 21.1823 1.1379 21.1901C1.15802 21.1978 1.15607 21.203 1.15348 21.2076C1.15088 21.2121 1.15348 21.2147 1.16645 21.2076C1.18303 21.2042 1.20026 21.2075 1.21447 21.2167C1.26379 21.2433 1.26834 21.2537 1.27937 21.3309C1.28261 21.3542 1.28845 21.3724 1.2917 21.3724C1.29494 21.3724 1.29754 21.3821 1.29754 21.3938C1.29792 21.4087 1.301 21.4235 1.30662 21.4373C1.31202 21.4566 1.31202 21.477 1.30662 21.4964C1.29948 21.5294 1.30078 21.534 1.31376 21.5366C1.32674 21.5392 1.32609 21.5424 1.32025 21.5496C1.31652 21.5558 1.31652 21.5635 1.32025 21.5697C1.32414 21.5755 1.32025 21.5807 1.32025 21.5814C1.32025 21.582 1.31441 21.595 1.32025 21.6106C1.32609 21.6261 1.32349 21.6411 1.32025 21.6437C1.31921 21.6753 1.32589 21.7067 1.33972 21.7352C1.34111 21.7364 1.34191 21.7382 1.34191 21.74C1.34191 21.7419 1.34111 21.7437 1.33972 21.7449C1.33689 21.7666 1.33843 21.7887 1.34426 21.8098C1.34972 21.8296 1.35127 21.8503 1.3488 21.8708C1.34166 21.8708 1.3488 21.889 1.37087 21.9461C1.378 21.9649 1.38125 21.9811 1.37736 21.9843C1.37589 21.9858 1.37507 21.9878 1.37507 21.9899C1.37507 21.9919 1.37589 21.9939 1.37736 21.9954C1.37903 21.9969 1.37999 21.999 1.37999 22.0012C1.37999 22.0035 1.37903 22.0056 1.37736 22.0071C1.37346 22.0103 1.37736 22.0304 1.38125 22.0518C1.38514 22.0732 1.38774 22.0908 1.38125 22.0921C1.37476 22.0934 1.38125 22.131 1.39033 22.1342C1.39285 22.1348 1.39548 22.1343 1.39758 22.1328C1.39969 22.1313 1.40106 22.129 1.40137 22.1265C1.40137 22.1174 1.40137 22.1174 1.40656 22.1265C1.40733 22.1334 1.40371 22.1401 1.39747 22.1433C1.38904 22.1485 1.38904 22.1544 1.39747 22.168C1.40338 22.1753 1.40638 22.1846 1.40591 22.194C1.40099 22.2131 1.40099 22.2332 1.40591 22.2524C1.40591 22.2582 1.41889 22.3172 1.43381 22.3854C1.44874 22.4535 1.4721 22.5353 1.50195 22.6391C1.57202 22.8774 1.66435 23.1086 1.77774 23.3296C1.79656 23.3698 1.82187 23.4107 1.84977 23.4594L1.8952 23.5366C1.91207 23.5632 1.93154 23.5898 1.95166 23.619C1.97177 23.6482 1.99189 23.68 2.01655 23.7118C2.04121 23.7436 2.06781 23.7767 2.09572 23.8098C2.12506 23.8468 2.15648 23.8821 2.18981 23.9156C2.22448 23.955 2.26154 23.9923 2.30078 24.0272L2.40071 24.1187C2.43576 24.1472 2.47015 24.1751 2.50454 24.2004C2.56944 24.251 2.63433 24.2926 2.66613 24.314C2.70744 24.3435 2.75081 24.3699 2.79591 24.3932C2.80701 24.397 2.81766 24.402 2.82771 24.4081L2.88222 24.4392L3.10545 24.569L3.17618 24.6093C3.195 24.6196 3.20993 24.6268 3.22226 24.6326C3.23467 24.64 3.24829 24.645 3.26249 24.6475C3.26249 24.6443 3.27093 24.6475 3.27417 24.6527C3.27742 24.6579 3.2839 24.6625 3.28715 24.6618C3.29039 24.6612 3.29364 24.6618 3.29429 24.6709C3.29494 24.68 3.29948 24.6813 3.30402 24.6767C3.30856 24.6722 3.32479 24.6767 3.32414 24.6923C3.32414 24.6878 3.32024 24.7092 3.31895 24.7248C3.31765 24.7403 3.3157 24.7631 3.3144 24.7767C3.31051 24.8104 3.3144 24.8351 3.3144 24.8468C3.3144 24.8584 3.3144 24.8604 3.3144 24.8701V24.8851V24.8948C3.31648 24.9092 3.31996 24.9233 3.32479 24.937V24.937V24.9331V24.9331V24.9331L3.33322 24.9454C3.36372 24.9915 3.4072 25.0648 3.42148 25.0752C3.42826 25.0809 3.43303 25.0886 3.4351 25.0973C3.44678 25.1234 3.4609 25.1484 3.47728 25.1719C3.49544 25.1969 3.51068 25.2239 3.52271 25.2523C3.52512 25.2641 3.53183 25.2745 3.54153 25.2815C3.55181 25.2894 3.55839 25.3011 3.5597 25.314C3.5728 25.3549 3.5893 25.3946 3.60902 25.4327C3.62939 25.4697 3.64343 25.5099 3.65055 25.5515C3.65055 25.5625 3.65639 25.5723 3.67067 25.5716C3.69792 25.5716 3.74464 25.6287 3.74205 25.669C3.74108 25.6869 3.74108 25.7049 3.74205 25.7228C3.74205 25.7676 3.71933 25.8078 3.6486 25.8526C3.53948 25.909 3.41771 25.9365 3.29494 25.9324C3.23004 25.9324 3.18332 25.9324 3.17488 25.9324C3.16353 25.9346 3.15185 25.9346 3.14049 25.9324C3.1201 25.9284 3.09995 25.9232 3.08014 25.9168C3.03342 25.9026 2.97372 25.885 2.92764 25.8747C2.89768 25.8692 2.86862 25.8596 2.84134 25.8461C2.83355 25.8396 2.7401 25.8007 2.65444 25.7566L2.53699 25.6949C2.50649 25.6787 2.47794 25.6644 2.45847 25.6553C2.43464 25.6464 2.41264 25.6332 2.39358 25.6164C2.39358 25.6119 2.38709 25.6086 2.37995 25.6093C2.37281 25.6099 2.35853 25.6093 2.2865 25.5541L2.26444 25.5379L2.25081 25.5288L2.21837 25.5087L2.07495 25.4172C1.97696 25.3523 1.88027 25.2874 1.8342 25.2556C1.78813 25.2238 1.75633 25.2024 1.72064 25.1751C1.66671 25.133 1.61494 25.0882 1.56554 25.0408C1.48767 24.9688 1.41305 24.8987 1.39877 24.8851C1.37216 24.8591 1.32804 24.8156 1.27547 24.7618C1.25017 24.7345 1.22032 24.7066 1.19241 24.6748L1.10935 24.5749L1.01461 24.4821C0.989946 24.447 0.965936 24.4139 0.943223 24.3828C0.899745 24.3179 0.860161 24.266 0.838746 24.229C0.698538 24.0007 0.575967 23.7621 0.472102 23.5152C0.420837 23.3802 0.368922 23.2511 0.335827 23.1427C0.318306 23.0882 0.302083 23.0402 0.288455 22.9993L0.260552 22.9026L0.216424 22.7527C0.201499 22.6943 0.183329 22.6229 0.166457 22.558C0.149585 22.4931 0.132713 22.4282 0.129468 22.423C0.123609 22.4149 0.119014 22.4059 0.115841 22.3964C0.109423 22.3727 0.0981533 22.3506 0.0827454 22.3315C0.0697669 22.3153 0.0697669 22.3121 0.0827454 22.3095C0.095724 22.3069 0.0944261 22.3043 0.0827454 22.2958C0.0616627 22.2642 0.0535335 22.2256 0.060033 22.1881C0.064175 22.1772 0.064175 22.1652 0.060033 22.1544C0.0467014 22.1393 0.0422649 22.1184 0.0483523 22.0992C0.0522459 22.0849 0.0483523 22.081 0.0412141 22.0823C0.0340759 22.0836 0.0301823 22.0291 0.0412141 22.0135C0.0444587 22.0103 0.0412141 21.9986 0.0412141 21.9882C0.036771 21.9711 0.0352355 21.9533 0.0366716 21.9357C0.0383949 21.9188 0.0354783 21.9017 0.0282355 21.8864C0.0204484 21.876 0.0197995 21.8688 0.0282355 21.863C0.0341855 21.8557 0.0367798 21.8463 0.0353737 21.837C0.0281545 21.7966 0.0188407 21.7565 0.00746986 21.717C0.00206715 21.6828 0.00496062 21.6479 0.0159059 21.6151C0.0217463 21.6106 0.0204484 21.6015 0.0113634 21.5879C0.00227844 21.5742 0.000331655 21.5651 0.0113634 21.5561C0.0223952 21.547 0.0178527 21.4983 0.00162951 21.4217C-0.00226405 21.4036 0.00162951 21.3925 0.00487415 21.3932C0.00811879 21.3938 0.0139591 21.3834 0.0139591 21.3711C0.0107145 21.3062 0.0522459 21.2193 0.0827454 21.229C0.0925786 21.2303 0.102335 21.2261 0.108054 21.218C0.114543 21.2102 0.123628 21.2056 0.128819 21.2082C0.134011 21.2108 0.136606 21.2082 0.135957 21.1972C0.135309 21.1862 0.135957 21.1836 0.146989 21.1914C0.171674 21.1988 0.198453 21.1935 0.218371 21.1771C0.220206 21.1727 0.224134 21.1695 0.228833 21.1685C0.233531 21.1676 0.238375 21.1691 0.241733 21.1725V21.1725Z" fill="black"/>
<path d="M6.74333 21.3997C6.74315 21.3815 6.73917 21.3636 6.73165 21.3471C6.72256 21.3225 6.71802 21.3011 6.72191 21.2998C6.72581 21.2985 6.72191 21.2913 6.71867 21.2829C6.71473 21.2761 6.71473 21.2676 6.71867 21.2608C6.72776 21.2498 6.71867 21.2349 6.71218 21.2452C6.70569 21.2556 6.70569 21.2498 6.70829 21.2452C6.71031 21.2401 6.71427 21.2359 6.71932 21.2336C6.7284 21.2336 6.72776 21.2264 6.71543 21.2096C6.70943 21.2008 6.70647 21.1903 6.70699 21.1797C6.70715 21.1655 6.70562 21.1514 6.70245 21.1375C6.6991 21.1235 6.69779 21.1091 6.69855 21.0947C6.6979 21.0818 6.69312 21.0696 6.68493 21.0596C6.67389 21.0467 6.67195 21.0415 6.67909 21.0395C6.68622 21.0376 6.68428 21.0337 6.67454 21.0279C6.66481 21.022 6.66351 21.0162 6.66805 21.0103C6.6726 21.0045 6.65248 20.9123 6.63626 20.911C6.62003 20.9097 6.63042 20.911 6.63626 20.9052C6.6421 20.8994 6.64923 20.8942 6.64015 20.8734C6.6343 20.8611 6.63249 20.8472 6.63496 20.8338C6.6395 20.8241 6.63496 20.8176 6.62717 20.8118C6.61938 20.8059 6.61484 20.8001 6.62133 20.7942C6.62782 20.7884 6.62522 20.7761 6.61744 20.7618C6.6095 20.7507 6.60733 20.7365 6.6116 20.7235C6.61679 20.7144 6.61679 20.7086 6.6116 20.7092C6.60641 20.7099 6.6116 20.7047 6.6116 20.6956C6.6116 20.6865 6.61679 20.6794 6.60251 20.6787C6.58824 20.6781 6.58629 20.6742 6.59213 20.6638C6.59678 20.6462 6.59678 20.6276 6.59213 20.6099C6.58669 20.594 6.58669 20.5766 6.59213 20.5606C6.59906 20.5512 6.60312 20.5399 6.60381 20.5282C6.60381 20.5068 6.60381 20.5061 6.59083 20.523C6.57785 20.5399 6.57591 20.5392 6.58304 20.5178C6.59018 20.4964 6.59602 20.4964 6.60316 20.4977C6.6103 20.499 6.61225 20.4944 6.60316 20.4841C6.59408 20.4737 6.59667 20.4568 6.609 20.4334C6.6382 20.377 6.65118 20.3685 6.75436 20.3458C6.77401 20.3433 6.79297 20.3369 6.81017 20.327C6.81017 20.3231 6.8225 20.3199 6.83872 20.3186C6.8582 20.3165 6.87736 20.3121 6.89583 20.3056C6.92053 20.2976 6.94671 20.2954 6.9724 20.2991C7.01588 20.303 7.02107 20.2991 7.02496 20.2894C7.02886 20.2796 7.03275 20.277 7.04184 20.2835C7.05006 20.2874 7.05957 20.2874 7.06779 20.2835C7.07493 20.2803 7.08142 20.2835 7.08207 20.2868C7.08272 20.29 7.09894 20.2926 7.11841 20.2868C7.13213 20.2824 7.14687 20.2824 7.16059 20.2868C7.19913 20.2886 7.23766 20.2831 7.27415 20.2706C7.27761 20.268 7.28237 20.268 7.28583 20.2706C7.31207 20.2746 7.33877 20.2746 7.365 20.2706C7.38876 20.2656 7.41327 20.2656 7.43703 20.2706C7.43703 20.277 7.4578 20.2744 7.52788 20.2569C7.55124 20.2511 7.56877 20.2504 7.57201 20.2569C7.5758 20.26 7.5812 20.26 7.58499 20.2569C7.58847 20.2537 7.59384 20.2537 7.59732 20.2569C7.61362 20.2623 7.631 20.2637 7.64793 20.2608C7.67259 20.2608 7.69271 20.2608 7.69271 20.2641C7.69271 20.2673 7.73554 20.2725 7.74073 20.2641C7.74592 20.2556 7.74073 20.2543 7.73424 20.2517C7.72775 20.2491 7.72581 20.2472 7.73424 20.2465C7.74139 20.2466 7.74782 20.2509 7.75046 20.2576C7.75436 20.2673 7.76085 20.268 7.77707 20.2608C7.78612 20.2564 7.79637 20.255 7.80627 20.2569C7.8268 20.2654 7.84898 20.2692 7.87117 20.268C7.88171 20.2668 7.89237 20.2682 7.90231 20.2719L7.92503 20.2764C7.95163 20.2822 7.97629 20.2874 7.98992 20.292C8.01643 20.2979 8.04331 20.302 8.07039 20.3043L8.11192 20.3088C8.11841 20.3088 8.12425 20.3088 8.12425 20.3088C8.12367 20.3078 8.12367 20.3066 8.12425 20.3056V20.3056H8.13139C8.14307 20.3056 8.17616 20.3056 8.21639 20.2991C8.25663 20.2926 8.31049 20.2913 8.35786 20.2835C8.39876 20.2789 8.43931 20.2716 8.47921 20.2615C8.49618 20.2585 8.51273 20.2534 8.52853 20.2465C8.52853 20.242 8.53761 20.2407 8.54605 20.2427C8.55297 20.2462 8.56119 20.2462 8.56811 20.2427C8.57345 20.2392 8.5803 20.2392 8.58563 20.2427C8.58851 20.2449 8.59218 20.2458 8.59576 20.2452C8.59933 20.2445 8.60249 20.2425 8.60445 20.2394C8.61029 20.229 8.64144 20.2271 8.68362 20.2238C8.69433 20.2214 8.70433 20.2165 8.71282 20.2096C8.72188 20.2008 8.73622 20.2008 8.74527 20.2096C8.75485 20.216 8.76704 20.2172 8.77772 20.2128C8.79978 20.2005 8.89128 20.2524 8.90036 20.2822C8.9058 20.2935 8.91465 20.3029 8.92567 20.3088C8.938 20.316 8.94903 20.3264 8.94968 20.3316C8.95033 20.3367 8.95293 20.34 8.95682 20.338C8.96071 20.3361 8.9685 20.3471 8.97759 20.3692C8.99761 20.4186 9.02448 20.4649 9.0574 20.5068C9.06527 20.5119 9.06992 20.5207 9.06973 20.5301C9.07785 20.5575 9.09034 20.5833 9.10672 20.6067C9.12391 20.6325 9.13806 20.6601 9.1489 20.6891C9.15201 20.7008 9.1583 20.7113 9.16707 20.7196C9.17634 20.7282 9.1825 20.7396 9.18459 20.7521C9.19855 20.7923 9.21569 20.8314 9.23586 20.8689C9.25603 20.905 9.27255 20.943 9.28518 20.9824C9.28633 20.9925 9.29312 21.0011 9.3027 21.0045C9.33503 21.0298 9.3579 21.0652 9.36759 21.1051C9.36759 21.1174 9.37473 21.1382 9.37797 21.1511C9.39087 21.186 9.38365 21.2251 9.35916 21.253C9.31625 21.2977 9.26363 21.3319 9.20536 21.353C9.18338 21.3608 9.16296 21.3724 9.14501 21.3874C9.12779 21.399 9.10794 21.4061 9.08726 21.4081C9.05052 21.4151 9.01463 21.426 8.98018 21.4406C8.9596 21.4507 8.93778 21.4581 8.91529 21.4626C8.9062 21.4626 8.82768 21.4808 8.73878 21.4996C8.69336 21.51 8.64663 21.5191 8.609 21.5256C8.57136 21.5321 8.52983 21.5405 8.50387 21.5463C8.4756 21.5542 8.44617 21.5571 8.41691 21.5548C8.41691 21.5509 8.40588 21.5548 8.40004 21.5548C8.3942 21.5548 8.37668 21.5665 8.27999 21.5652H8.23197L8.21769 21.5619C8.20998 21.5604 8.20204 21.5604 8.19433 21.5619C8.18525 21.5619 8.18395 21.5619 8.16837 21.558C8.16346 21.5557 8.1582 21.5541 8.1528 21.5535C8.13138 21.5578 8.10932 21.5578 8.08791 21.5535C8.05158 21.5441 8.0144 21.5385 7.97694 21.5366H7.96461H7.95098H7.92503C7.88158 21.5376 7.83824 21.5413 7.79524 21.5476C7.78686 21.5519 7.7779 21.555 7.76863 21.5567C7.74563 21.5587 7.72342 21.5661 7.70374 21.5781C7.68752 21.5879 7.68492 21.5879 7.68427 21.5749C7.68363 21.5619 7.68103 21.5632 7.67194 21.571C7.64184 21.586 7.60694 21.5881 7.57525 21.5768C7.56625 21.5724 7.55571 21.5724 7.5467 21.5768C7.53281 21.5879 7.51372 21.5896 7.49803 21.5814C7.48635 21.5755 7.48246 21.5762 7.48311 21.5859C7.48376 21.5957 7.43703 21.5905 7.426 21.5755C7.426 21.5723 7.41432 21.5717 7.40524 21.5755C7.39064 21.5782 7.3757 21.5782 7.36111 21.5755C7.34739 21.572 7.33283 21.5736 7.32023 21.5801C7.31114 21.5866 7.30595 21.5866 7.30141 21.5801C7.29651 21.5741 7.28898 21.571 7.28129 21.5717C7.24921 21.5761 7.21753 21.583 7.18655 21.5924C7.16053 21.5971 7.13371 21.5942 7.10932 21.584C7.10543 21.5781 7.09894 21.5794 7.08856 21.5885C7.07818 21.5976 7.07298 21.5996 7.0652 21.5885C7.05741 21.5775 7.02107 21.582 6.96916 21.6028C6.95683 21.6073 6.94904 21.6067 6.94839 21.6028C6.94774 21.5989 6.93995 21.5944 6.93087 21.5957C6.88544 21.6041 6.81925 21.5742 6.81796 21.5437C6.81712 21.5343 6.81212 21.5258 6.80433 21.5204C6.79764 21.5162 6.79312 21.5094 6.792 21.5016C6.792 21.4964 6.78811 21.4938 6.78226 21.4957C6.77642 21.4977 6.77188 21.4957 6.77513 21.4853C6.77413 21.4608 6.76366 21.4375 6.74593 21.4205C6.73985 21.4152 6.73872 21.4062 6.74333 21.3997Z" fill="black"/>
<path d="M6.1898 10.9695C6.19301 10.9515 6.19168 10.933 6.18591 10.9156C6.18007 10.8897 6.17877 10.8676 6.18266 10.8669C6.18656 10.8663 6.18656 10.8585 6.18266 10.8501C6.17798 10.8432 6.17798 10.8342 6.18266 10.8274C6.1937 10.817 6.18915 10.8014 6.17747 10.8111C6.16579 10.8209 6.17033 10.8157 6.17358 10.8111C6.17682 10.8062 6.18162 10.8026 6.18721 10.8008C6.19759 10.8008 6.19694 10.7943 6.18721 10.7761C6.18247 10.7667 6.18088 10.756 6.18266 10.7456C6.18467 10.7316 6.18467 10.7174 6.18266 10.7034C6.18099 10.689 6.18099 10.6744 6.18266 10.6599C6.18421 10.647 6.18072 10.634 6.17293 10.6236C6.1632 10.61 6.16255 10.6041 6.16904 10.6028C6.17553 10.6015 6.17488 10.5976 6.16904 10.5905C6.1632 10.5834 6.1593 10.5782 6.16449 10.573C6.171 10.5374 6.16356 10.5007 6.14373 10.4704C6.13724 10.4704 6.13854 10.4672 6.14373 10.4653C6.14892 10.4633 6.15736 10.4555 6.15022 10.4341C6.14596 10.421 6.14596 10.4069 6.15022 10.3939C6.15256 10.3901 6.15325 10.3856 6.15215 10.3813C6.15105 10.377 6.14824 10.3733 6.14438 10.3712C6.13529 10.364 6.13464 10.3588 6.14048 10.353C6.14632 10.3472 6.14503 10.3355 6.14048 10.3212C6.13514 10.3088 6.13514 10.2947 6.14048 10.2823C6.14503 10.2738 6.14632 10.268 6.14048 10.2686C6.13464 10.2693 6.14048 10.2634 6.14048 10.255C6.14048 10.2466 6.14568 10.2394 6.13335 10.2375C6.12102 10.2355 6.12037 10.231 6.12556 10.2213C6.12935 10.2037 6.12935 10.1856 6.12556 10.168C6.12155 10.1521 6.12155 10.1354 6.12556 10.1194C6.13202 10.1107 6.13585 10.1003 6.13659 10.0895C6.13659 10.0681 6.13659 10.0675 6.12621 10.0824C6.11582 10.0973 6.11323 10.0967 6.11972 10.0765C6.12621 10.0564 6.1314 10.0564 6.13724 10.059C6.14308 10.0616 6.14438 10.059 6.13724 10.0461C6.13104 10.0296 6.13322 10.0112 6.14308 9.99673C6.16709 9.94547 6.17812 9.93833 6.26118 9.92016C6.28649 9.91497 6.30661 9.90783 6.30596 9.90458C6.30531 9.90134 6.31634 9.89809 6.32932 9.8968C6.34568 9.8953 6.36168 9.89113 6.37669 9.88447C6.39733 9.87642 6.41977 9.87418 6.44159 9.87798C6.47793 9.88252 6.48312 9.88122 6.48571 9.86824C6.48831 9.85527 6.49155 9.85527 6.49999 9.86111C6.50705 9.86503 6.51564 9.86503 6.5227 9.86111C6.52854 9.85721 6.53438 9.86111 6.53568 9.86111C6.53698 9.86111 6.55061 9.86695 6.56748 9.86111C6.58435 9.85527 6.60122 9.85656 6.60447 9.86111C6.63938 9.86081 6.67377 9.8526 6.70505 9.8371C6.70822 9.83436 6.71291 9.83436 6.71608 9.8371C6.74025 9.83913 6.76459 9.83716 6.78811 9.83126C6.80926 9.82568 6.8312 9.8237 6.85301 9.82541C6.85301 9.83255 6.87377 9.82541 6.93802 9.80335C6.95878 9.79492 6.97695 9.79232 6.9802 9.79621C6.9819 9.79796 6.98424 9.79894 6.98669 9.79894C6.98913 9.79894 6.99147 9.79796 6.99317 9.79621C6.99687 9.79291 7.00246 9.79291 7.00615 9.79621C7.0225 9.80078 7.03978 9.80078 7.05612 9.79621C7.08078 9.79102 7.1009 9.79037 7.10155 9.79621C7.10219 9.80205 7.14502 9.79946 7.14957 9.78843C7.15411 9.77739 7.14957 9.77869 7.14113 9.77739C7.13269 9.7761 7.13205 9.77415 7.14113 9.7722C7.14847 9.77125 7.15566 9.77484 7.1593 9.78129C7.16514 9.79037 7.17163 9.79037 7.1872 9.78129C7.19577 9.77539 7.20602 9.77243 7.21641 9.77285C7.23776 9.77774 7.25994 9.77774 7.2813 9.77285C7.27676 9.77285 7.38383 9.76117 7.49285 9.74625L7.92503 9.68979C8.43704 9.6249 8.89843 9.57558 9.18979 9.54897C9.49479 9.51977 9.94709 9.47499 10.7595 9.41919C11.084 9.39712 11.4571 9.37765 11.5869 9.37181C11.7167 9.36597 11.8303 9.35948 11.8387 9.35624C11.857 9.35311 11.8754 9.35116 11.8939 9.3504L11.9919 9.34456L12.2638 9.33612L12.4247 9.32963C12.4478 9.32979 12.4708 9.32762 12.4935 9.32314C12.4935 9.31925 12.5065 9.3186 12.5175 9.32314C12.5279 9.32596 12.5389 9.32596 12.5493 9.32314C12.5577 9.32117 12.5665 9.32308 12.5733 9.32834C12.5814 9.33439 12.5925 9.33439 12.6006 9.32834C12.6395 9.32158 12.6794 9.3238 12.7174 9.33483C12.7337 9.33618 12.7501 9.33487 12.766 9.33093C12.7817 9.32435 12.7998 9.32766 12.8121 9.33937C12.8245 9.34895 12.8399 9.35399 12.8556 9.35364C12.8965 9.35364 12.9821 9.43736 12.9711 9.4685C12.9708 9.48134 12.9757 9.49375 12.9847 9.5029C12.9951 9.51523 13.0009 9.52885 12.9983 9.53405C12.9958 9.53924 12.9983 9.54313 13.0022 9.54248C13.0061 9.54183 13.01 9.55611 13.0068 9.58012C13.0017 9.63476 13.0061 9.68986 13.0198 9.743C13.0247 9.7512 13.0247 9.76141 13.0198 9.76961C13.0137 9.79774 13.0122 9.82665 13.0152 9.85527C13.0186 9.88589 13.0186 9.91679 13.0152 9.94741C13.0117 9.95904 13.0117 9.97147 13.0152 9.9831C13.0191 9.99512 13.0191 10.0081 13.0152 10.0201C13.0095 10.0631 13.0069 10.1065 13.0074 10.1499C13.0085 10.1913 13.0063 10.2327 13.0009 10.2738C12.9978 10.2831 12.9995 10.2933 13.0055 10.3011C13.0187 10.3394 13.022 10.3805 13.0152 10.4205C13.0152 10.4328 13.0087 10.4536 13.0061 10.4666C12.9938 10.547 12.9588 10.5704 12.8361 10.5788C12.8192 10.5783 12.8025 10.5821 12.7874 10.5899C12.7874 10.5944 12.766 10.5944 12.744 10.5899C12.7172 10.5847 12.6896 10.5847 12.6629 10.5899C12.646 10.5934 12.6285 10.5934 12.6116 10.5899C12.5033 10.5868 12.3949 10.5909 12.2871 10.6022C12.2633 10.6065 12.2389 10.6065 12.2151 10.6022C12.2151 10.5983 12.2054 10.5989 12.2002 10.6022C12.195 10.6054 12.1813 10.6113 12.0996 10.6022H12.0743H12.0594H12.0094L11.7894 10.6087L11.4292 10.6275C11.2832 10.6385 11.2664 10.6405 11.0224 10.6496C10.8984 10.6541 10.7784 10.6619 10.7557 10.6638L9.73424 10.7553C9.26637 10.7884 8.17682 10.9156 7.93217 10.9552L7.48636 11.024C7.44483 11.0292 7.40381 11.0379 7.36371 11.0499C7.35604 11.0547 7.34774 11.0584 7.33905 11.061C7.31717 11.066 7.29674 11.076 7.27935 11.0902C7.26443 11.1019 7.26183 11.1019 7.25988 11.0902C7.25794 11.0785 7.25534 11.0785 7.24755 11.0902C7.21837 11.1084 7.18327 11.1147 7.14957 11.1077C7.13996 11.1029 7.12868 11.1029 7.11907 11.1077C7.10586 11.1206 7.08636 11.1247 7.0691 11.1181C7.05612 11.1135 7.05288 11.1181 7.05417 11.1246C7.05547 11.1311 7.0055 11.135 6.98928 11.1213C6.98928 11.1181 6.97565 11.1213 6.96592 11.1213C6.95031 11.1257 6.93408 11.1274 6.9179 11.1265C6.90239 11.1247 6.8867 11.1279 6.87312 11.1356C6.86404 11.1434 6.85755 11.144 6.85236 11.1356C6.84533 11.1302 6.83645 11.1279 6.8277 11.1291C6.79103 11.137 6.75485 11.1469 6.71933 11.159C6.68812 11.1654 6.65581 11.164 6.62523 11.1551C6.62069 11.1492 6.6129 11.1512 6.60057 11.1609C6.58824 11.1706 6.58046 11.1732 6.57137 11.1648C6.56229 11.1564 6.51751 11.1603 6.44808 11.1823C6.43185 11.1875 6.42147 11.1869 6.42147 11.1823C6.42147 11.1778 6.41238 11.1739 6.40005 11.1752C6.33516 11.1836 6.25534 11.1499 6.26118 11.1187C6.26161 11.1089 6.25662 11.0997 6.24821 11.0947C6.23977 11.0882 6.23458 11.0798 6.23653 11.0752C6.23847 11.0707 6.23653 11.0675 6.22549 11.0688C6.21446 11.0701 6.21316 11.0688 6.21836 11.0577C6.22323 11.0325 6.2152 11.0064 6.19694 10.9883C6.18979 10.985 6.1866 10.9766 6.1898 10.9695V10.9695Z" fill="#FFF6ED"/>
<defs>
<linearGradient id="paint0_linear_8_41" x1="1.27355" y1="25.9884" x2="28.4727" y2="25.9884" gradientUnits="userSpaceOnUse">
<stop stop-color="#66DFF5"/>
<stop offset="0.5" stop-color="#06B6D4"/>
<stop offset="1" stop-color="#06B6D4"/>
</linearGradient>
<linearGradient id="paint1_linear_8_41" x1="0.644086" y1="26.569" x2="29.0678" y2="26.569" gradientUnits="userSpaceOnUse">
<stop stop-color="#06B6D4"/>
<stop offset="0.5" stop-color="#92E9F8"/>
<stop offset="1" stop-color="#06B6D4"/>
</linearGradient>
</defs>
</svg>